<?xml version="1.0" encoding="utf-8"?>
<!-- Generator: Adobe Illustrator 27.5.0, SVG Export Plug-In . SVG Version: 6.00 Build 0)  -->
<svg version="1.1" xmlns="http://www.w3.org/2000/svg" xmlns:xlink="http://www.w3.org/1999/xlink" x="0px" y="0px"
	 viewBox="0 0 750 500" style="enable-background:new 0 0 750 500;" xml:space="preserve">
<g id="background">
	<rect style="fill:#00000000;" width="750" height="500"/>
</g>
<g id="objects">
	<g>
		<g>
			<path d="M648.591,350.18c-0.229,0-0.465-0.024-0.705-0.072c-1.313-0.219-2.334-1.063-2.859-2.377
				c-0.642-1.601-0.412-3.621,0.557-4.913c0.75-1.514,2.686-3.104,4.767-4.027c-0.424-0.543-0.941-0.965-1.552-1.209
				c-1.404-0.562-3.948-0.672-5.895,0.23c-1.013,0.47-1.668,1.131-1.945,1.964c-0.088,0.262-0.369,0.404-0.633,0.316
				c-0.262-0.088-0.403-0.371-0.316-0.633c0.363-1.089,1.219-1.973,2.475-2.555c1.93-0.896,4.807-1.005,6.685-0.251
				c0.876,0.35,1.591,0.97,2.146,1.761c0.359-0.119,0.718-0.217,1.071-0.287c2.124-0.711,3.959-0.669,5.392,0.142
				c1.541,0.872,2.615,2.635,3.194,5.239c0.06,0.27-0.11,0.536-0.38,0.597c-0.271,0.059-0.537-0.11-0.597-0.38
				c-0.515-2.316-1.427-3.859-2.71-4.586c-1.18-0.668-2.741-0.683-4.644-0.048c-0.266,0.053-0.534,0.123-0.805,0.207
				c1.041,2.104,1.209,4.954,0.52,7.273C651.671,348.879,650.292,350.179,648.591,350.18z M650.894,339.648
				c-1.94,0.832-3.767,2.301-4.464,3.692c-0.806,1.088-0.986,2.745-0.477,4.018c0.277,0.691,0.868,1.559,2.111,1.766
				c2.133,0.419,3.037-1.843,3.333-2.837C652.032,344.153,651.852,341.507,650.894,339.648z"/>
		</g>
		<g>
			<path d="M233.438,379.067c-2.453,0-4.738-0.973-6.48-2.77c-0.773-0.872-1.358-2.03-1.711-3.284
				c-1.294-0.112-2.537-0.558-3.634-1.317c-1.913-1.324-3.204-3.491-3.541-5.943c-0.381-3.04,0.667-4.91,2.309-7.418
				c0.151-0.23,0.462-0.295,0.692-0.144c0.231,0.151,0.295,0.461,0.145,0.692c-1.561,2.382-2.5,3.982-2.155,6.738
				c0.298,2.17,1.436,4.087,3.119,5.252c0.86,0.596,1.824,0.969,2.83,1.107c-0.211-1.212-0.207-2.462,0.048-3.594
				c0.481-2.137,1.75-3.699,3.667-4.517c1.162-0.495,2.385-0.363,3.275,0.352c1.022,0.82,1.454,2.261,1.156,3.853
				c-0.512,2.094-2.877,4.132-5.507,4.77c-0.456,0.104-0.914,0.166-1.367,0.189c0.314,0.989,0.793,1.894,1.406,2.586
				c1.634,1.685,3.838,2.548,6.171,2.438c2.461-0.126,4.747-1.305,6.272-3.236c0.171-0.217,0.486-0.253,0.703-0.083
				c0.216,0.171,0.253,0.485,0.083,0.702c-1.704,2.158-4.257,3.475-7.006,3.615C233.754,379.064,233.595,379.067,233.438,379.067z
				 M230.131,364.572c-0.326,0-0.668,0.072-1.011,0.219c-2.034,0.867-2.8,2.554-3.085,3.816c-0.244,1.083-0.232,2.286-0.004,3.434
				c0.461-0.008,0.928-0.064,1.393-0.17c2.249-0.545,4.341-2.306,4.758-4.007c0.224-1.196-0.075-2.276-0.805-2.862
				C231.021,364.717,230.592,364.572,230.131,364.572z"/>
		</g>
		<g>
			<path d="M237.5,92.5c-0.275,0-0.499-0.223-0.5-0.498c-0.019-4.267,1.629-8.54,4.3-11.151c1.888-1.845,4.239-2.828,6.822-2.854
				c2.024-3.176,6.25-5.131,9.96-4.516c2.176,0.361,4.081,1.551,5.923,2.702c3.406,2.128,6.349,3.966,10.133-0.026
				c0.189-0.201,0.506-0.21,0.707-0.019c0.201,0.189,0.209,0.506,0.019,0.707c-4.345,4.587-7.925,2.351-11.389,0.186
				c-1.758-1.099-3.577-2.235-5.556-2.563c-3.092-0.511-6.697,1.049-8.614,3.582c3.994,0.396,6.033,2.918,6.612,5.252
				c0.54,2.174-0.103,4.334-1.526,5.137c-0.822,0.464-2.583,0.861-5.131-1.696c-2.275-2.284-2.879-5.078-1.69-7.724
				c-2.115,0.144-3.985,0.999-5.569,2.548c-2.484,2.429-4.016,6.426-3.999,10.432c0.001,0.276-0.222,0.501-0.498,0.502
				C237.502,92.5,237.5,92.5,237.5,92.5z M248.688,79.007c-0.018,0.034-0.036,0.068-0.054,0.103
				c-1.224,2.375-0.751,4.834,1.333,6.926c1.519,1.525,2.953,2.083,3.931,1.531c1.023-0.577,1.474-2.307,1.047-4.024
				C254.693,82.524,253.5,79.225,248.688,79.007z"/>
		</g>
		<g>
			<path style="fill:#F2AC30;" d="M648.545,232.669c-3.502,0-6.226-2.161-6.938-5.504c-0.644-3.025,0.344-5.048,1.285-6.212
				c1.354-1.673,3.535-2.672,5.834-2.672c3.208,0,5.901,1.839,7.205,4.919c0.582,1.422,0.491,3.127-0.252,4.807
				c-0.85,1.92-2.449,3.502-4.174,4.129C650.533,232.49,649.537,232.669,648.545,232.669z M648.726,219.28
				c-2,0-3.89,0.86-5.057,2.301c-1.154,1.427-1.529,3.286-1.084,5.375c0.609,2.863,2.949,4.712,5.96,4.712
				c0.875,0,1.756-0.159,2.618-0.472c1.477-0.538,2.857-1.915,3.601-3.595c0.633-1.429,0.719-2.855,0.243-4.018
				C653.868,220.891,651.519,219.28,648.726,219.28z"/>
		</g>
		<g>
			<path style="fill:#70BADB;" d="M148.044,369.336c-3.502,0-6.226-2.161-6.938-5.505c-0.645-3.025,0.343-5.048,1.286-6.212
				c1.354-1.674,3.535-2.673,5.833-2.673c3.208,0,5.901,1.839,7.205,4.919c0.582,1.424,0.492,3.129-0.252,4.81
				c-0.85,1.92-2.449,3.501-4.173,4.128C150.032,369.156,149.037,369.336,148.044,369.336z M148.225,355.946
				c-2,0-3.89,0.86-5.056,2.302c-1.155,1.427-1.53,3.285-1.084,5.374c0.609,2.863,2.949,4.714,5.96,4.714
				c0.875,0,1.756-0.159,2.618-0.473c1.477-0.537,2.857-1.914,3.601-3.593c0.633-1.43,0.719-2.857,0.243-4.021
				C153.367,357.558,151.018,355.946,148.225,355.946z"/>
		</g>
		<g>
			<path style="fill:#70BADB;" d="M637.574,300.254c-1.871,0-3.61-0.917-4.653-2.452l-10.023-14.756
				c-0.838-1.235-1.145-2.728-0.862-4.204c0.281-1.476,1.116-2.75,2.351-3.589l14.758-10.025c0.928-0.629,2.013-0.962,3.138-0.962
				c1.871,0,3.611,0.917,4.655,2.454l10.024,14.755c1.735,2.56,1.067,6.056-1.49,7.794l-14.754,10.021
				C639.786,299.921,638.7,300.254,637.574,300.254z M642.281,265.266c-0.924,0-1.815,0.273-2.575,0.79l-14.758,10.025
				c-1.014,0.688-1.699,1.735-1.932,2.949c-0.231,1.213,0.021,2.439,0.709,3.453l10.023,14.756c0.856,1.262,2.286,2.015,3.825,2.015
				c0.925,0,1.816-0.273,2.579-0.792l14.754-10.021c2.103-1.429,2.651-4.302,1.225-6.405l-10.023-14.754
				C645.252,266.02,643.82,265.266,642.281,265.266z"/>
		</g>
		<g>
			<path style="fill:#F2AC30;" d="M197.845,430.146c-2.049,0-3.553-1.63-3.925-4.252l-2.9-20.487
				c-0.244-1.722,0.075-3.147,0.922-4.121c1.13-1.303,3.087-1.575,5.243-0.707l19.191,7.729c1.892,0.762,3.05,2.003,3.261,3.493
				c0.211,1.49-0.556,3.004-2.162,4.261l-16.291,12.757C200.076,429.685,198.921,430.146,197.845,430.146z M194.793,401.069
				c-0.877,0-1.602,0.301-2.097,0.871c-0.642,0.739-0.886,1.92-0.686,3.325l2.9,20.487c0.301,2.124,1.398,3.393,2.934,3.393
				c0.85,0,1.792-0.386,2.723-1.115l16.291-12.757c1.311-1.027,1.947-2.212,1.788-3.333c-0.159-1.122-1.098-2.083-2.645-2.706
				l-19.191-7.729C196.091,401.216,195.413,401.069,194.793,401.069z"/>
		</g>
		<g>
			<path style="fill:#F2C87E;" d="M353.325,87.871c-0.902,0-1.864-0.277-2.858-0.824l-18.131-9.97
				c-1.787-0.982-2.788-2.352-2.82-3.857c-0.031-1.505,0.912-2.915,2.656-3.971l17.701-10.716c1.038-0.628,2.047-0.947,3-0.947
				c2.286,0,3.802,1.852,3.861,4.719l0.432,20.685c0.034,1.635-0.4,2.962-1.256,3.835C355.239,87.509,354.346,87.871,353.325,87.871
				z M352.872,58.586c-0.757,0-1.615,0.277-2.483,0.802l-17.701,10.716c-1.425,0.863-2.197,1.962-2.173,3.095
				c0.024,1.133,0.841,2.199,2.302,3.002l18.131,9.97c1.706,0.937,3.3,0.92,4.246-0.046c0.664-0.678,0.999-1.755,0.971-3.115
				l-0.432-20.685C355.685,60.019,354.589,58.586,352.872,58.586z"/>
		</g>
	</g>
	<g>
		<g>
			<path d="M424.498,456.121c-0.008,0-0.009,0-0.017,0c-41.364-0.001-77.259-3.108-101.072-8.748
				c-27.102-6.419-45.153-17.547-53.652-33.076c-7.183-13.123-7.514-29.241-0.982-47.907c0.246-0.701,0.498-1.432,0.761-2.194
				c5.1-14.78,14.593-42.291,59.755-97.105c32.837-39.854,74.98-61.803,118.667-61.803c16.118,0,32.142,2.969,47.624,8.824
				c38.597,14.597,70.873,38.062,93.339,67.858c18.906,25.076,30.691,54.396,33.183,82.559c2.692,30.43-5.964,55.497-22.591,65.42
				C569.217,448.027,489.783,456.121,424.498,456.121z M447.958,206.287c-43.383,0-85.252,21.82-117.896,61.44
				c-45.047,54.675-54.502,82.074-59.582,96.795c-0.264,0.764-0.516,1.496-0.762,2.198c-6.435,18.388-6.127,34.233,0.915,47.098
				c8.358,15.27,26.191,26.231,53.006,32.583c23.74,5.622,59.553,8.72,100.842,8.721c0.004,0,0.013,0,0.017,0
				c65.15,0,144.368-8.049,174.503-26.033c16.294-9.724,24.765-34.428,22.106-64.472c-4.306-48.666-39.856-117.038-125.879-149.57
				C479.859,209.233,463.955,206.287,447.958,206.287z"/>
		</g>
		<g>
			<g>
				<defs>
					<path id="SVGID_1_" d="M98.323,203.871c-5.036,21.999-11.564,83.17,10.871,106.691c22.435,23.521,39.442,26.778,77.798,27.501
						c38.356,0.723,57.535,2.891,85.759,1.083c28.225-1.807,72.369-2.804,77.074-66.579
						c8.498-115.196-78.026-168.348-147.502-162.196C132.848,116.522,107.823,162.371,98.323,203.871z"/>
				</defs>
				<clipPath id="SVGID_00000176042221985894942770000006112281805444060315_">
					<use xlink:href="#SVGID_1_"  style="overflow:visible;"/>
				</clipPath>
				<g style="clip-path:url(#SVGID_00000176042221985894942770000006112281805444060315_);">
					<g>
						<path style="fill:#FFFFFF;" d="M228.061,165.099c1.989,3.257,3.615,9.047,4.523,15.379c0.635,4.432,1.81,4.886,6.151,6.875
							c4.343,1.99,5.339,5.789,2.986,7.96c-3.351,3.093-3.347,1.403-3.799,4.886c-0.303,2.322,0.327,4.177-2.798,3.177
							c-1.227-0.393-3.764-1.903-4.125-1.625c-1.082,0.836-0.75,4,3.375,6.375c1.504,0.866,2.75,0.75,1.421,7.633
							c-1.158,5.995-8.413,6.92-15.605,5.563c-7.192-1.356-5.699,4.071-8.549,11.806c-2.85,7.735-3.257,12.077,0.678,15.334
							c3.936,3.257,7.057,18.861,6.649,22.661c-0.407,3.799-13.977,11.669-25.511-1.086c-6.241-8.685-13.298-25.375-13.298-25.375
							s7.327-10.177,7.191-20.083c-0.135-9.905-4.342-47.222,9.363-57.806C210.421,156.188,226.704,162.477,228.061,165.099z"/>
						<path d="M207.616,277.524c-3.676,0-9.181-1.241-14.527-7.154c-6.238-8.674-13.317-25.348-13.388-25.515
							c-0.068-0.161-0.047-0.345,0.055-0.487c0.072-0.101,7.229-10.162,7.097-19.784c-0.018-1.368-0.118-3.309-0.232-5.556
							c-0.72-14.081-2.217-43.379,9.79-52.652c6.456-4.986,13.2-6.033,17.721-6.033c7.345,0,13.419,2.681,14.375,4.526
							c1.942,3.178,3.616,8.852,4.574,15.538c0.583,4.074,1.548,4.516,5.61,6.375l0.255,0.117c2.515,1.153,4.142,2.97,4.463,4.985
							c0.229,1.436-0.249,2.785-1.346,3.797c-1.19,1.099-1.976,1.614-2.497,1.956c-0.863,0.566-0.879,0.577-1.146,2.626
							c-0.055,0.424-0.078,0.831-0.099,1.207c-0.091,1.578-0.238,3.378-3.347,2.381c-0.519-0.166-1.232-0.507-1.922-0.838
							c-0.602-0.288-1.484-0.71-1.831-0.786c-0.181,0.209-0.271,0.573-0.242,1.005c0.081,1.187,1.081,2.982,3.647,4.459
							c0.132,0.076,0.263,0.145,0.39,0.211c1.628,0.853,2.491,1.643,1.272,7.95c-0.811,4.201-4.591,6.515-10.643,6.515
							c-1.726,0-3.592-0.187-5.545-0.556c-0.702-0.132-1.333-0.199-1.876-0.199c-2.949,0-3.505,1.828-4.48,5.961
							c-0.399,1.692-0.852,3.61-1.631,5.725c-3.027,8.216-2.894,11.944,0.527,14.776c4.103,3.395,7.258,19.087,6.828,23.1
							C219.193,273.731,214.096,277.524,207.616,277.524z M180.73,244.72c0.915,2.131,7.415,17.065,13.135,25.023
							c5.066,5.598,10.277,6.781,13.751,6.781c6.036,0,10.651-3.54,10.857-5.457c0.393-3.671-2.757-19.149-6.471-22.222
							c-4.305-3.564-3.612-8.335-0.828-15.892c0.758-2.058,1.203-3.944,1.596-5.609c0.922-3.908,1.588-6.732,5.453-6.732
							c0.614,0,1.288,0.071,2.061,0.217c1.892,0.357,3.696,0.538,5.36,0.538c3.905,0,8.751-0.99,9.661-5.704
							c1.136-5.884,0.384-6.278-0.755-6.874c-0.138-0.072-0.28-0.147-0.425-0.23c-2.469-1.421-4.019-3.387-4.145-5.258
							c-0.057-0.842,0.203-1.551,0.714-1.946c0.434-0.336,1.189-0.008,2.788,0.757c0.66,0.316,1.342,0.642,1.795,0.788
							c0.525,0.168,0.948,0.253,1.256,0.253c0.592,0,0.702-0.244,0.788-1.74c0.022-0.398,0.048-0.83,0.106-1.279
							c0.301-2.317,0.419-2.566,1.588-3.334c0.493-0.324,1.238-0.813,2.367-1.855c0.843-0.778,1.211-1.81,1.037-2.905
							c-0.263-1.654-1.718-3.237-3.892-4.233l-0.254-0.116c-4.131-1.892-5.523-2.528-6.184-7.143
							c-0.939-6.556-2.563-12.093-4.454-15.189c-0.634-1.223-5.967-4.017-13.504-4.017c-4.365,0-10.876,1.011-17.109,5.824
							c-11.593,8.953-10.114,37.899-9.403,51.81c0.115,2.257,0.215,4.207,0.234,5.593
							C187.979,233.818,181.848,243.106,180.73,244.72z"/>
					</g>
					<path d="M186.992,338.064c2.533,1.087,26.415,2.352,26.415,2.352s10.494-33.469,6.152-71.826
						c-8.685,7.599-18.455,5.788-28.225-2.172C197.485,285.234,194.592,323.95,186.992,338.064z"/>
					<path d="M223.736,189.57c0.528,1.692,1.739,2.821,2.704,2.521c0.965-0.302,1.317-1.919,0.79-3.612
						c-0.528-1.692-1.74-2.821-2.702-2.519C223.563,186.262,223.207,187.877,223.736,189.57z"/>
					<g>
						<path d="M225.361,186.771c-0.046,0-0.094-0.006-0.141-0.02c-0.265-0.078-0.417-0.356-0.338-0.621l0.905-3.076
							c0.078-0.264,0.355-0.418,0.621-0.338c0.265,0.078,0.416,0.356,0.338,0.621l-0.905,3.076
							C225.777,186.63,225.578,186.771,225.361,186.771z"/>
					</g>
					<path style="fill:#70BADB;" d="M201.285,288.852c-2.793-20.6-12.003-34.229-20.15-46.855c-1.25-1.938-2.405-1.661-2.938-1.555
						c-3.896,0.772-8.242,2.601-7.128,4.987c0.236,0.505,0.599,1.024,1.051,1.602c-1.69,0.341-3.713,0.765-6.116,1.294
						c-9.048,1.989-14.646,5.567-20.255,11.176c-5.609,5.608-34.29,40.385-42.25,49.25C113.994,329.015,132,332,132,332
						s16.455-16.553,26.767-29.218c-0.362,2.532-1.627,26.054-5.246,35.281c6.392,3.708,24.156,3.53,34.036,3.107
						c1.622,1.488,7.939,0.149,7.939,0.149S204.179,310.201,201.285,288.852z"/>
					<path d="M170.798,170.707c-4.749,1.764-10.041,6.105-12.891,24.696c-1.378,8.989-4.714,18.642-4.086,27.81
						c0.588,8.581,8.02,10.921,15.596,12.436c6.674,1.335,32.614,7.52,34.25-3.649c1.908-13.03-18.63-19.573-15.684-31.667
						c0.599-2.458,3.068-5.513,5.61-6.082c3.244-0.726,4.209,2.047,6.731,3.747c3.073,2.072,4.913,0.861,6.759-2.249
						c1.745-2.939,1.091-7.648,0.815-10.948c-0.362-4.324-0.875-5.886,2.876-7.124c5.072-1.672,9.416-5.108,4.533-10.906
						c6.513,7.733,9.77,6.513,15.062,3.12c5.292-3.393,5.563-6.514,3.528-12.348c-2.036-5.835-8.277-14.791-19.269-13.434
						c-10.991,1.357-9.906,4.342-23.068,7.056C178.397,153.881,169.984,157.816,170.798,170.707z"/>
					<g>
						<path d="M219.92,180.841c-0.056,0-0.112-0.009-0.168-0.029c-0.26-0.093-0.396-0.378-0.303-0.639
							c0.355-0.995,2.362-6.007,7.018-6.97c0.27-0.054,0.535,0.118,0.591,0.389c0.056,0.27-0.118,0.535-0.389,0.591
							c-4.132,0.854-5.955,5.42-6.279,6.327C220.318,180.713,220.125,180.841,219.92,180.841z"/>
					</g>
					<g>
						<path style="fill:#FFFFFF;" d="M187.173,340.734c-0.01,0-0.021,0-0.031-0.001c-0.276-0.018-0.485-0.255-0.468-0.53
							c0.027-0.435,0.119-1.619,0.253-3.343c0.783-10.059,2.864-36.779,2.101-42.881c-0.799-6.389,0.932-7.989,3.553-10.412
							c0.328-0.303,0.672-0.621,1.03-0.966c-1.29-0.822-4.678-2.975-7.242-4.541c-2.678-1.636-3.268-3.857-4.842-9.796
							c-0.47-1.771-1.003-3.78-1.71-6.232c-2.149-7.463-5.21-11.18-7.236-13.64c-0.497-0.604-0.926-1.125-1.284-1.625
							c-0.161-0.225-0.109-0.537,0.116-0.698c0.226-0.161,0.538-0.108,0.698,0.116c0.338,0.473,0.757,0.982,1.242,1.571
							c2.078,2.524,5.219,6.337,7.425,13.999c0.71,2.463,1.267,4.564,1.715,6.254c1.5,5.655,2.062,7.772,4.397,9.198
							c3.224,1.971,7.744,4.861,7.789,4.891c0.127,0.081,0.211,0.217,0.228,0.367c0.016,0.15-0.037,0.3-0.143,0.407
							c-0.529,0.529-1.033,0.995-1.503,1.43c-2.563,2.369-3.975,3.674-3.24,9.553c0.776,6.203-1.31,32.997-2.096,43.083
							c-0.134,1.717-0.226,2.896-0.252,3.328C187.655,340.53,187.436,340.734,187.173,340.734z"/>
					</g>
					<path style="fill:#70BADB;" d="M257.01,275.281l-3.8,11.217c0,0-9.046-16.463-14.836-23.7
						c-5.411-6.764-13.19-10.998-19.354-13.296c-4.158-6.882-10.033-7.876-10.033-7.876s-0.466,1.63,0.395,3.691
						c0.86,2.061,10.175,18.204,8.005,43.896c-2.17,25.691-9.589,51.202-9.589,51.202h5.609c0,0,0.043-0.142,0.123-0.404
						c4.22,0.543,12.812,1.408,13.084-0.5c0.361-2.533,5.248-22.797,8.142-29.13c8.685,16.102,16.742,19.387,28.4,14.49
						c8.334-3.5,15.203-31.496,16.107-42.533C279.444,282.156,257.01,275.281,257.01,275.281z"/>
					<g>
						<path style="fill:#FFFFFF;" d="M213.407,340.915c-0.048,0-0.097-0.007-0.146-0.021c-0.264-0.081-0.413-0.36-0.332-0.625
							c0.112-0.366,11.23-36.789,12.836-43.749c1.651-7.158,1.599-8.017,0.522-10.121c-1.354-2.643-2.515-4.965-2.515-4.965
							c-0.116-0.232-0.036-0.513,0.185-0.649c1.221-0.754,4.275-3.158,3.756-5.198c-1.155-4.531-5.555-19.546-8.771-25.252
							l-0.104-0.183c-0.137-0.24-0.054-0.545,0.186-0.682c0.239-0.139,0.545-0.054,0.682,0.186l0.107,0.189
							c3.266,5.793,7.706,20.932,8.869,25.497c0.683,2.68-2.65,5.242-3.816,6.043c0.388,0.772,1.295,2.575,2.312,4.561
							c1.258,2.456,1.208,3.667-0.437,10.801c-1.614,6.994-12.743,43.449-12.855,43.817
							C213.82,340.776,213.622,340.915,213.407,340.915z"/>
					</g>
					<g>
						<path d="M234.755,310.881c-0.069,0-0.14-0.015-0.208-0.045c-0.251-0.115-0.361-0.412-0.247-0.663
							c8.133-17.803,5.102-24.211,3.29-28.04c-0.315-0.666-0.587-1.242-0.776-1.809c-0.087-0.262,0.055-0.545,0.316-0.633
							c0.265-0.088,0.546,0.056,0.633,0.316c0.17,0.51,0.43,1.061,0.731,1.697c1.886,3.986,5.042,10.657-3.285,28.884
							C235.126,310.772,234.945,310.881,234.755,310.881z"/>
					</g>
					<g>
						<path d="M256.152,293.783c-0.187,0-0.366-0.104-0.452-0.284c-0.02-0.042-2.018-4.223-3.81-8.526
							c-0.106-0.255,0.014-0.548,0.269-0.654c0.254-0.102,0.547,0.014,0.654,0.27c1.783,4.28,3.769,8.439,3.79,8.48
							c0.119,0.249,0.014,0.548-0.235,0.667C256.297,293.768,256.224,293.783,256.152,293.783z"/>
					</g>
					<g>
						<path style="fill:#FFFFFF;" d="M258.457,270.984c2.035-6.377,5.021-23.61,5.699-29.988c0.678-6.377-3.121-15.333,1.356-21.032
							c4.478-5.699,7.328-8.549,8.549-11.398c1.222-2.85,4.071-3.257,5.564-0.407c1.493,2.85-0.815,7.871-4.206,11.398
							c8.277-5.292,8.955-3.393,11.533-7.463c2.579-4.071,7.6-14.52,10.857-14.248c2.714-3.664,5.834-1.629,6.377,3.393
							c1.629-0.136,3.121,3.664,2.036,9.362c3.935,2.308,3.527,10.72-2.036,17.098c-5.563,6.378-16.147,10.177-18.454,15.334
							c-2.307,5.156-6.106,35.416-6.106,35.416L258.457,270.984z"/>
						<path d="M279.625,278.948c-0.056,0-0.112-0.01-0.167-0.028l-21.168-7.464c-0.255-0.09-0.392-0.366-0.31-0.624
							c2.051-6.425,5.026-23.756,5.679-29.889c0.228-2.149-0.064-4.596-0.374-7.186c-0.601-5.02-1.223-10.211,1.835-14.102
							c1.378-1.753,2.595-3.23,3.669-4.532c2.406-2.918,3.995-4.845,4.813-6.754c0.712-1.663,1.97-2.655,3.364-2.655
							c1.235,0,2.365,0.806,3.102,2.212c1.335,2.548-0.026,6.404-2.357,9.653c2.136-1.225,3.624-1.88,4.706-2.357
							c1.98-0.872,2.721-1.198,4.113-3.397c0.55-0.868,1.231-2.064,1.954-3.33c3.428-6.011,6.48-11.002,9.079-11.152
							c1.211-1.537,2.36-1.868,3.123-1.868c1.972,0,3.497,2.066,3.947,5.302c0.324,0.079,0.712,0.282,1.094,0.743
							c1,1.209,1.856,4.237,1.047,8.838c1.266,0.874,2.097,2.35,2.414,4.293c0.673,4.131-1.143,9.381-4.625,13.374
							c-2.625,3.01-6.25,5.39-9.756,7.692c-3.827,2.513-7.441,4.886-8.618,7.518c-2.25,5.03-6.029,34.973-6.067,35.274
							c-0.019,0.149-0.104,0.283-0.233,0.363C279.808,278.923,279.717,278.948,279.625,278.948z M259.077,270.673l20.13,7.098
							c0.567-4.446,3.914-30.126,6.068-34.942c1.297-2.899,5.03-5.35,8.982-7.945c3.449-2.265,7.016-4.607,9.551-7.513
							c3.295-3.778,5.02-8.706,4.392-12.556c-0.292-1.789-1.063-3.097-2.232-3.782c-0.183-0.107-0.278-0.317-0.238-0.525
							c0.792-4.163,0.183-7.192-0.774-8.347c-0.16-0.194-0.409-0.425-0.686-0.425c-0.255,0-0.554-0.189-0.581-0.443
							c-0.311-2.88-1.519-4.815-3.003-4.815c-0.811,0-1.667,0.576-2.475,1.667c-0.103,0.139-0.268,0.219-0.443,0.201
							c0,0-0.001,0-0.002,0c-2.341,0-5.995,6.407-8.413,10.647c-0.728,1.277-1.416,2.483-1.978,3.37
							c-1.556,2.456-2.496,2.87-4.555,3.777c-1.527,0.672-3.619,1.594-7.131,3.839c-0.214,0.135-0.496,0.09-0.656-0.104
							c-0.161-0.196-0.149-0.481,0.026-0.663c3.073-3.196,5.563-8.074,4.124-10.82c-0.566-1.081-1.353-1.676-2.216-1.676
							c-0.981,0-1.895,0.766-2.445,2.048c-0.875,2.041-2.5,4.013-4.961,6.997c-1.071,1.298-2.284,2.77-3.655,4.514
							c-2.801,3.566-2.205,8.547-1.629,13.365c0.317,2.648,0.616,5.15,0.376,7.411C264.012,247.074,261.137,263.863,259.077,270.673
							z"/>
					</g>
					<g>
						<path d="M280.303,228.877c-0.226,0-0.431-0.154-0.486-0.384c-0.686-2.88-3.265-7.579-4.676-8.52
							c-0.23-0.153-0.292-0.464-0.139-0.693c0.153-0.23,0.463-0.292,0.693-0.139c1.756,1.171,4.401,6.213,5.094,9.121
							c0.064,0.269-0.102,0.538-0.371,0.602C280.381,228.873,280.342,228.877,280.303,228.877z"/>
					</g>
					<g>
						<path d="M296.859,226.163c-0.184,0-0.36-0.101-0.448-0.276c-0.505-1.011-6.513-8.213-8.803-8.977
							c-0.262-0.087-0.403-0.37-0.316-0.632c0.087-0.262,0.369-0.404,0.632-0.316c2.626,0.876,8.832,8.381,9.381,9.478
							c0.124,0.247,0.023,0.547-0.224,0.671C297.01,226.146,296.934,226.163,296.859,226.163z"/>
					</g>
					<g>
						<path d="M295.637,226.842c-0.189,0-0.37-0.107-0.455-0.29c-0.116-0.251-0.006-0.548,0.245-0.664
							c1.571-0.725,5.027-5.156,5.96-10.221c0.478-2.596,1.276-4.209,2.44-4.93c1.078-0.668,2.27-0.439,3.073-0.21
							c0.266,0.076,0.419,0.353,0.344,0.618c-0.077,0.265-0.353,0.415-0.618,0.344c-1-0.287-1.701-0.255-2.271,0.098
							c-0.899,0.557-1.566,1.991-1.984,4.262c-0.961,5.214-4.564,10.042-6.524,10.947
							C295.778,226.827,295.707,226.842,295.637,226.842z"/>
					</g>
					<g>
						<path d="M293.873,222.363c-0.14,0-0.278-0.058-0.377-0.172c-0.181-0.209-0.159-0.524,0.049-0.706
							c2.958-2.572,4.17-6.322,5.265-11.93c1.007-5.162,2.97-8.034,5.832-8.538c0.27-0.05,0.531,0.133,0.579,0.405
							c0.048,0.272-0.133,0.531-0.405,0.579c-2.414,0.425-4.104,3.031-5.024,7.745c-1.136,5.822-2.415,9.733-5.59,12.494
							C294.106,222.323,293.99,222.363,293.873,222.363z"/>
					</g>
					<g>
						<path d="M290.751,218.836c-0.1,0-0.2-0.029-0.287-0.091c-0.226-0.159-0.28-0.471-0.121-0.696
							c1.472-2.093,3.32-8.074,4.805-12.879c1.111-3.594,2.07-6.698,2.763-7.97c0.133-0.243,0.436-0.332,0.678-0.2
							c0.243,0.132,0.332,0.436,0.2,0.678c-0.646,1.184-1.636,4.391-2.686,7.786c-1.585,5.127-3.38,10.938-4.943,13.16
							C291.064,218.762,290.909,218.836,290.751,218.836z"/>
					</g>
					<g>
						<path d="M157.681,304.368c-0.114,0-0.23-0.039-0.323-0.119c-0.21-0.179-0.236-0.494-0.057-0.705
							c3.049-3.586,9.183-10.085,9.245-10.15c0.189-0.199,0.505-0.21,0.706-0.02c0.201,0.19,0.21,0.506,0.02,0.707
							c-0.061,0.064-6.177,6.544-9.21,10.111C157.964,304.309,157.823,304.368,157.681,304.368z"/>
					</g>
					<path d="M257.573,269.371c-2,3.75-3.157,9.832-2.75,10.375c0.407,0.543,15.25,1.75,25.375,9
						c2.307,1.085,3.044-9.604,2.684-10.841C281.932,274.648,258.795,268.014,257.573,269.371z"/>
					<g>
						<path style="fill:#FFFFFF;" d="M201.104,288.447c-0.117,0-0.233-0.04-0.328-0.123c-0.046-0.039-4.605-3.997-6.726-5.41
							c-0.229-0.153-0.292-0.464-0.139-0.693c0.153-0.229,0.462-0.292,0.693-0.139c2.173,1.448,6.638,5.323,6.827,5.488
							c0.208,0.181,0.23,0.496,0.049,0.705C201.382,288.389,201.243,288.447,201.104,288.447z"/>
					</g>
					<g>
						<path style="fill:#FFFFFF;" d="M217.584,286.413c-0.128,0-0.256-0.049-0.354-0.146c-0.195-0.195-0.195-0.512,0-0.707
							c1.911-1.91,4.352-3.376,5.968-4.346c0.401-0.24,0.745-0.446,1.007-0.616c0.232-0.15,0.542-0.085,0.692,0.146
							c0.15,0.231,0.084,0.541-0.147,0.691c-0.27,0.176-0.624,0.388-1.037,0.636c-1.574,0.944-3.952,2.372-5.775,4.195
							C217.84,286.364,217.712,286.413,217.584,286.413z"/>
					</g>
					<path style="fill:#F2AC30;" d="M203.051,215.347c-0.528-4.933-4.417-9.989-9.034-7.04c-4.015,2.564-5.237,9.467-1.563,12.74
						c1.564,1.393,4.096,2.044,6.212,1.629C202.221,221.979,203.409,218.691,203.051,215.347z"/>
				</g>
			</g>
			<g>
				<path d="M250.456,340.349c-0.001,0-0.001,0-0.002,0c-9.757,0-19.312-0.36-30.374-0.778c-9.502-0.358-20.273-0.766-33.096-1.007
					c-37.461-0.706-55.019-3.404-78.15-27.656c-21.646-22.694-16.756-81.988-10.997-107.148
					c13.123-57.324,48.262-88.912,104.443-93.886c3.598-0.318,7.287-0.48,10.962-0.48c37.157,0,74.476,16.294,99.829,43.586
					c19.474,20.964,41.746,58.735,37.253,119.625c-4.611,62.496-47.11,65.143-75.233,66.896l-2.308,0.146
					C265.29,340.125,258.195,340.349,250.456,340.349z M213.242,110.393c-3.646,0-7.305,0.16-10.875,0.476
					c-55.7,4.932-90.542,36.26-103.557,93.113c-5.72,24.989-10.621,83.835,10.746,106.235c22.87,23.977,40.28,26.646,77.445,27.346
					c12.833,0.242,23.608,0.648,33.116,1.008c11.053,0.417,20.598,0.777,30.336,0.777c0,0,0.001,0,0.002,0
					c7.718,0,14.792-0.223,22.264-0.701l2.309-0.145c27.776-1.73,69.751-4.345,74.298-65.972
					c3.534-47.912-9.256-89.017-36.989-118.871C287.17,126.567,250.125,110.393,213.242,110.393z"/>
			</g>
		</g>
		<g>
			<path style="fill:#70BADB;" d="M264.353,134.431c6.776-1.768,28.436-5.894,39.781-8.251c11.346-2.358,23.723-3.979,25.343-3.241
				c1.62,0.736-16.355,23.427-24.754,32.414c-2.799,1.915-6.63-1.62-6.63-1.62c-7.956,8.251-16.944,11.345-18.417,11.64
				c-1.474,0.294-2.211-8.84-2.358-14.293c-0.147-5.451,0.82-6.513-3.683-8.692C259.637,135.608,264.353,134.431,264.353,134.431z"
				/>
			<g>
				<path d="M279.675,165.872c-0.22,0-0.421-0.146-0.482-0.368c-0.073-0.267,0.084-0.542,0.35-0.614
					c0.739-0.269,3.428-4.624,5.391-7.804c2.11-3.417,4.103-6.646,5.29-7.833c2.237-2.237,22.847-16.306,31.595-22.227
					l-42.844,17.004c-0.256,0.101-0.547-0.024-0.65-0.28c-0.102-0.257,0.024-0.547,0.28-0.649l47.148-18.712
					c0.247-0.1,0.531,0.016,0.641,0.261c0.109,0.244,0.006,0.532-0.233,0.651c-1.456,0.772-32.892,22.32-35.232,24.659
					c-1.105,1.105-3.16,4.433-5.147,7.651c-3.413,5.528-5.01,7.979-5.978,8.243C279.763,165.866,279.719,165.872,279.675,165.872z"
					/>
			</g>
			<g>
				<path d="M298.976,154.822c-0.103,0-0.206-0.031-0.295-0.096l-0.215-0.158c-3.021-2.209-6.782-4.965-7.664-4.515
					c-0.247,0.123-0.546,0.023-0.671-0.224c-0.124-0.247-0.023-0.547,0.224-0.671c1.361-0.679,4.056,1.206,8.701,4.602l0.215,0.157
					c0.223,0.163,0.272,0.476,0.109,0.699C299.282,154.751,299.13,154.822,298.976,154.822z"/>
			</g>
		</g>
		<g>
			<path style="fill:#F2AC30;" d="M337.429,235.454c-5.667,0.519-8.884,4.039-8.316,14.055c0.566,10.019-1.702,20.358,2.268,24.233
				c3.97,3.879,13.985,3.881,23.249,4.041c9.262,0.16,21.257-0.111,24.808-0.162c8.363-0.121,11.34-1.574,12.475-8.119
				c0.668-3.852-0.935-25.583-0.992-27.868c-0.143-5.695-3.828-6.422-11.908-6.786C371.265,234.499,342.722,234.969,337.429,235.454
				z"/>
			<g>
				<path d="M360.181,261.974c-0.038,0-0.075-0.001-0.112-0.001c-3.987-0.06-7.228-3.414-9.607-6.33
					c-4.395-5.391-14.284-16.445-16.688-18.499c-0.21-0.179-0.235-0.495-0.055-0.705c0.179-0.211,0.495-0.234,0.705-0.055
					c2.435,2.081,12.396,13.21,16.814,18.626c2.241,2.748,5.272,5.909,8.846,5.963c2.557,0.017,5.229-1.534,7.949-4.673
					c7.487-8.638,18.598-19.519,18.709-19.628c0.199-0.193,0.516-0.189,0.707,0.008c0.193,0.197,0.19,0.514-0.008,0.707
					c-0.111,0.109-11.192,10.961-18.652,19.567C365.864,260.33,363.046,261.974,360.181,261.974z"/>
			</g>
			<g>
				<path d="M331.381,274.242c-0.184,0-0.361-0.102-0.448-0.277c-0.123-0.247-0.023-0.547,0.225-0.67
					c1.3-0.647,7.93-6.905,12.77-11.474c4.01-3.785,6.305-5.943,6.849-6.275c0.236-0.145,0.543-0.07,0.688,0.166
					c0.144,0.235,0.07,0.543-0.166,0.688c-0.48,0.294-3.494,3.138-6.684,6.149c-6.56,6.191-11.683,10.98-13.011,11.641
					C331.532,274.226,331.456,274.242,331.381,274.242z"/>
			</g>
			<g>
				<path d="M387.898,275.859c-0.171,0-0.338-0.088-0.432-0.247c-0.318-0.542-4.043-4.577-7.645-8.479
					c-4.755-5.15-9.671-10.476-10.415-11.657c-0.147-0.233-0.077-0.543,0.156-0.689c0.236-0.148,0.543-0.075,0.689,0.156
					c0.695,1.104,5.8,6.634,10.304,11.513c4.588,4.97,7.418,8.046,7.773,8.651c0.14,0.238,0.06,0.544-0.179,0.685
					C388.072,275.837,387.985,275.859,387.898,275.859z"/>
			</g>
		</g>
		<g>
			<g>
				<defs>
					<path id="SVGID_00000096766700140854207450000005109439417114668219_" d="M472.915,54.806
						c-34.934,7.364-89.618,22.568-87.102,89.214c2.516,66.646,28.14,100.996,70.923,114.325s147.762,27.019,170.051-17.291
						c22.29-44.31,14.941-107.57,3.438-133.869C618.721,80.886,590.836,29.95,472.915,54.806z"/>
				</defs>
				<clipPath id="SVGID_00000107555375257740109310000006321767611941095349_">
					<use xlink:href="#SVGID_00000096766700140854207450000005109439417114668219_"  style="overflow:visible;"/>
				</clipPath>
				<g style="clip-path:url(#SVGID_00000107555375257740109310000006321767611941095349_);">
					<path d="M567.416,109.167c-2.75-11.666-28.084-26.666-38.917-22.499c-10.833,4.166,3,8.999,3,8.999
						c-16.666-3-24.666-1.001-26.333,3.167c-1.667,4.167,5.333,5.833,5.333,5.833c-11.333,0.334-23.999,9.167-22.166,15.334
						c1.833,6.166,9.333,3.916,9.333,3.916c-10.667,8.584-8.927,17.312,2.203,16.281c-11.703,8.803-13.368,24.969-8.869,30.803
						s8.867-2.996,8.867-2.996c-4.701,12.996,2.298,21.496,8.965,10.663c-1.499,14.833,11.667,16.833,15.834,9.5
						c4,14.167,13.5,11.999,15.167,5c5.167,6.5,15.333,4.333,17.333-2.667c5.667,6.667,10.667,0.583,10.167-4.583
						c5.833,6.833,15,7.666,16.833-4.75c8.333,6.167,12.5,6,10.25-8.75c13.917,5.083,21.25-10.417,5.25-23.75
						c10.667,2.833,9.5-8.167-5.75-14.75c10.75-0.25,12.083-7.584,6.75-13C595.333,115.501,586.333,105,567.416,109.167z"/>
					<g>
						<path style="fill:#FFFFFF;" d="M514.445,137.636c-1.628,9.77,1.267,12.666,4.161,19.541c2.896,6.875-1.152,14.12,6.56,22.705
							c7.191,8.006,18.047,7.509,18.047,7.509l3.075,12.484l26.597-6.876l-5.789-25.058c0,0,5.428-2.984,3.799-13.66
							c-1.628-10.675-1.809-37.089-27.682-33.109C517.34,125.151,516.798,129.855,514.445,137.636z"/>
						<path d="M546.288,200.375c-0.09,0-0.178-0.024-0.256-0.071c-0.115-0.068-0.197-0.18-0.229-0.31l-2.98-12.098
							c-1.89-0.001-11.476-0.386-18.028-7.681c-4.955-5.517-5.178-10.619-5.374-15.121c-0.118-2.696-0.229-5.243-1.274-7.725
							c-0.56-1.332-1.115-2.501-1.652-3.632c-2.166-4.564-3.877-8.168-2.541-16.185l0.247-0.838
							c2.261-7.573,3.625-12.145,28.938-16.038c1.772-0.272,3.481-0.411,5.08-0.411c19.049,0,21.329,18.927,22.691,30.235
							c0.164,1.366,0.314,2.617,0.48,3.704c1.448,9.492-2.524,13.105-3.728,13.963l5.711,24.717c0.06,0.264-0.1,0.529-0.362,0.597
							l-26.597,6.876C546.372,200.37,546.33,200.375,546.288,200.375z M543.213,186.891c0.229,0,0.431,0.156,0.485,0.38
							l2.954,11.993l25.636-6.628l-5.68-24.583c-0.05-0.218,0.051-0.443,0.246-0.551c0.05-0.028,5.096-2.991,3.546-13.147
							c-0.167-1.096-0.319-2.357-0.485-3.734c-1.322-10.979-3.536-29.355-21.698-29.355c-1.549,0-3.207,0.134-4.928,0.399
							c-24.688,3.797-25.983,8.14-28.132,15.335l-0.233,0.779c-1.269,7.645,0.3,10.953,2.473,15.53
							c0.542,1.141,1.102,2.32,1.671,3.673c1.114,2.646,1.229,5.28,1.352,8.069c0.198,4.545,0.403,9.246,5.119,14.496
							c6.283,6.995,15.511,7.349,17.297,7.349C543.316,186.896,543.198,186.891,543.213,186.891z"/>
					</g>
					<path d="M577.037,145.163c-0.903-5.452-2.011-10.609-4.829-15.467c-1.738-2.996-3.307-6.078-6.245-8.075
						c-8.253-5.609-19.367-5.273-28.759-3.324c-7.459,1.548-15.762,4.19-21.542,9.332c-1.921,1.708-9.7,9.463-4.662,11.704
						c2.95,1.312,6.201-1.472,8.426-3.352c0.101,0.283,0.259,0.587,0.49,0.935c1.5,2.25,5.25,2.5,7.75,2c6.5-1,12.75-5.25,17.5-10
						c-1,1.5-2.25,3.5-1.75,5.5c1,2.25,3.25,2.5,5.25,2.5c4.25-0.25,8.25-3.75,11.25-6.5c-2.5,4.75-5.25,9.5-5.5,15
						c-0.25,2.5,0,5.25,1,7.5c1.25,3,4,3,6.5,1.25c-1.25,4-2,7.75-0.25,11.749c1.043,2.385,4.333,6.417,8.917,5.584
						c3.661-0.665,4.339-9.253,5.666-12.25C578.726,153.656,578.045,151.253,577.037,145.163z"/>
					<g>
						<path style="fill:#FFFFFF;" d="M509.433,141.129c-2.238,0-4.403-0.796-5.007-3.065c-0.352-1.319-0.143-2.918,0.17-3.975
							c0.606-2.058,2.477-4.971,4.168-6.493c0.203-0.185,0.519-0.169,0.706,0.037c0.185,0.205,0.168,0.521-0.038,0.706
							c-1.548,1.393-3.323,4.156-3.877,6.033c-0.274,0.926-0.461,2.314-0.162,3.434c0.751,2.821,4.735,2.329,5.527,2.201
							c2.371-0.381,4.129-0.925,5.532-1.709c0.24-0.133,0.546-0.048,0.681,0.192c0.135,0.241,0.049,0.546-0.192,0.681
							c-1.509,0.843-3.371,1.423-5.862,1.824C510.54,141.081,509.984,141.129,509.433,141.129z"/>
					</g>
					<g>
						<path d="M535.822,170.498c-0.009,0-0.019,0-0.027-0.001c-3.29-0.182-5.346-0.942-6.286-2.325
							c-1.168-1.718-0.422-3.96,0.301-6.128c0.141-0.423,0.281-0.845,0.405-1.258c1.108-3.696-1.43-8.157-4.257-10.738
							c-2.231-2.037-5.076-2.419-6.904-1.897c-1.038,0.297-1.751,0.882-1.955,1.607c-0.075,0.266-0.347,0.42-0.617,0.346
							c-0.266-0.075-0.42-0.351-0.346-0.617c0.301-1.066,1.264-1.903,2.644-2.297c2.097-0.6,5.338-0.176,7.852,2.12
							c3.153,2.878,5.779,7.632,4.54,11.764c-0.126,0.422-0.27,0.854-0.414,1.287c-0.645,1.938-1.312,3.941-0.422,5.25
							c0.742,1.093,2.598,1.728,5.514,1.89c0.276,0.015,0.487,0.251,0.472,0.527C536.307,170.292,536.086,170.498,535.822,170.498z"
							/>
					</g>
					<g>
						<path d="M534.292,148.395c-0.109,0-0.219-0.035-0.311-0.108c-0.217-0.172-0.253-0.486-0.081-0.703
							c1.746-2.205,6.803-6.767,16.015-1.523c0.24,0.137,0.324,0.442,0.188,0.682c-0.137,0.24-0.442,0.323-0.682,0.187
							c-8.231-4.684-12.765-1.212-14.737,1.275C534.585,148.331,534.44,148.395,534.292,148.395z"/>
					</g>
					<path d="M546.039,156.125c0.837,1.563,0.797,3.218-0.094,3.695c-0.89,0.479-2.293-0.401-3.132-1.965
						c-0.84-1.561-0.795-3.216,0.093-3.691C543.798,153.686,545.199,154.563,546.039,156.125z"/>
					<g>
						<path d="M543.519,154.908c-0.08,0-0.16-0.019-0.235-0.059l-2.831-1.508c-0.243-0.13-0.336-0.433-0.206-0.676
							c0.131-0.244,0.435-0.333,0.677-0.206l2.831,1.508c0.243,0.13,0.336,0.433,0.206,0.676
							C543.871,154.812,543.698,154.908,543.519,154.908z"/>
					</g>
					<path d="M527.178,157.754c0.836,1.563,0.796,3.217-0.095,3.695c-0.889,0.478-2.293-0.402-3.131-1.966
						c-0.84-1.561-0.796-3.216,0.093-3.691C524.936,155.314,526.338,156.19,527.178,157.754z"/>
					<g>
						<path d="M524.658,156.536c-0.08,0-0.16-0.019-0.235-0.059l-2.831-1.508c-0.243-0.13-0.336-0.433-0.206-0.676
							c0.13-0.245,0.435-0.335,0.677-0.207l2.831,1.508c0.243,0.13,0.336,0.433,0.206,0.676
							C525.01,156.44,524.837,156.536,524.658,156.536z"/>
					</g>
					<g>
						<path d="M539.182,179.004c-2.386,0-4.729-2.215-6.599-6.238c-0.076-0.163-0.059-0.354,0.046-0.5
							c0.103-0.146,0.275-0.225,0.457-0.208c0.512,0.051,1.041,0.104,1.561,0.104c1.93,0,4.216-0.759,10.193-4.639
							c0.161-0.105,0.366-0.107,0.531-0.009c0.164,0.099,0.257,0.283,0.239,0.474C544.985,174.783,542.522,179.004,539.182,179.004z
							 M533.875,173.132c1.599,3.109,3.508,4.872,5.307,4.872c2.579,0,4.622-3.526,5.32-9.076
							C538.234,172.917,536.136,173.292,533.875,173.132z"/>
					</g>
					<g>
						<path d="M537.785,178.618c-0.043,0-0.088-0.005-0.132-0.018c-0.267-0.073-0.423-0.348-0.351-0.614
							c0.881-3.231,4.471-5.645,6.832-5.506c0.275,0.017,0.485,0.254,0.468,0.53c-0.017,0.275-0.23,0.485-0.53,0.468
							c-2.011-0.128-5.063,2.053-5.805,4.771C538.207,178.472,538.005,178.618,537.785,178.618z"/>
					</g>
					<path style="fill:#F2AC30;" d="M477.673,263.604c4.749-4.612,27.41-34.601,36.23-45.321
						c8.819-10.72,18.997-10.991,32.838-11.127c-3.408-13.656-2.503-13.958-1.824-13.823c0.678,0.136,13.608,2.956,26.5-6
						c3.416-0.916,3.277,12.767,6.534,14.531c3.256,1.765,24.967-2.714,35.688,8.007c10.72,10.719,18.183,36.094,18.183,36.094
						c-5.835,9.363-45.458,38.808-95.257,25.239c-0.95-4.207-7.735-10.721-9.771-18.997c-8.413,10.991-14.384,19.132-14.384,19.132
						S485.679,269.575,477.673,263.604z"/>
					<g>
						<path d="M557.125,211.269c-5.452,0-9.251-2.205-10.745-3.767c-0.19-0.2-0.184-0.516,0.016-0.707
							c0.199-0.191,0.516-0.183,0.707,0.016c2.804,2.932,14.307,8.198,29.838-5.591c0.207-0.184,0.523-0.165,0.706,0.042
							c0.184,0.207,0.164,0.522-0.042,0.706C569.575,209.097,562.535,211.269,557.125,211.269z"/>
					</g>
					<g>
						<path d="M554.25,211.141c-0.215,0-0.413-0.139-0.479-0.354c-0.181-0.595-4.444-14.605-4.894-16.59
							c-0.061-0.269,0.108-0.537,0.377-0.598c0.271-0.061,0.536,0.108,0.598,0.377c0.442,1.949,4.831,16.374,4.876,16.52
							c0.08,0.264-0.068,0.544-0.333,0.624C554.347,211.134,554.298,211.141,554.25,211.141z"/>
					</g>
					<g>
						<path d="M560.129,211.05c-0.213,0-0.41-0.137-0.478-0.351l-5.246-16.735c-0.082-0.263,0.064-0.544,0.328-0.626
							c0.263-0.08,0.544,0.064,0.627,0.328l5.246,16.735c0.082,0.263-0.064,0.544-0.328,0.626
							C560.229,211.042,560.179,211.05,560.129,211.05z"/>
					</g>
					<g>
						<path d="M566.281,209.24c-0.21,0-0.406-0.134-0.476-0.344l-5.247-16.012c-0.086-0.263,0.058-0.545,0.32-0.631
							c0.257-0.086,0.544,0.057,0.631,0.319l5.247,16.012c0.086,0.263-0.058,0.545-0.32,0.631
							C566.385,209.232,566.333,209.24,566.281,209.24z"/>
					</g>
					<g>
						<path d="M571.891,206.346c-0.216,0-0.415-0.141-0.479-0.358l-4.434-15.017c-0.078-0.265,0.073-0.543,0.338-0.621
							c0.264-0.08,0.543,0.073,0.621,0.338l4.434,15.017c0.078,0.265-0.073,0.543-0.338,0.621
							C571.985,206.339,571.938,206.346,571.891,206.346z"/>
					</g>
					<g>
						<path d="M543.357,187.984c-0.054,0-0.106-0.001-0.158-0.002c-0.275-0.007-0.494-0.236-0.487-0.512
							c0.007-0.276,0.208-0.489,0.513-0.488c3.543,0.124,13.065-2.987,19.14-10.49c0.174-0.215,0.488-0.247,0.703-0.074
							c0.215,0.174,0.248,0.489,0.074,0.703C556.938,184.783,547.169,187.984,543.357,187.984z"/>
					</g>
					<g>
						<path d="M528.693,257.728c-0.192,0-0.375-0.111-0.458-0.299c-3.312-7.529-3.569-15.041-3.569-17.163
							c0-0.276,0.224-0.5,0.5-0.5c0.276,0,0.5,0.224,0.5,0.5c0,1.476,0.168,9.22,3.485,16.761c0.111,0.253-0.004,0.548-0.257,0.659
							C528.829,257.714,528.761,257.728,528.693,257.728z"/>
					</g>
					<g>
						<path d="M601.561,267.226c-0.217,0-0.416-0.142-0.479-0.359c-0.045-0.153-4.498-15.393-6.374-21.153
							c-0.085-0.263,0.059-0.544,0.32-0.63c0.268-0.084,0.545,0.059,0.631,0.321c1.881,5.774,6.338,21.028,6.382,21.181
							c0.078,0.266-0.074,0.543-0.339,0.62C601.655,267.219,601.607,267.226,601.561,267.226z"/>
					</g>
					<g>
						<path style="fill:#FFFFFF;" d="M568.776,172.379c-1.551,0-3.341-0.514-5.259-1.519c-0.244-0.128-0.339-0.43-0.211-0.675
							c0.129-0.246,0.434-0.338,0.676-0.211c2.282,1.196,4.33,1.643,5.908,1.289c3.72-0.845,5.265-7.362,5.265-10.664
							c0-0.214,0.137-0.404,0.339-0.474c0.202-0.068,0.427-0.001,0.558,0.169c1.701,2.212,3.702,3.243,6.298,3.243
							c2.533-0.17,4.98-2.973,5.295-5.179c0.04-0.273,0.299-0.467,0.566-0.424c0.273,0.039,0.464,0.293,0.425,0.566
							c-0.374,2.624-3.187,5.833-6.252,6.037c-0.001,0-0.003,0-0.003,0c-2.503,0-4.561-0.871-6.28-2.654
							c-0.344,4.092-2.271,9.511-5.989,10.356C569.69,172.332,569.244,172.379,568.776,172.379z"/>
					</g>
				</g>
			</g>
			<g>
				<path d="M546.176,271.835c-0.005,0-0.006,0-0.011,0c-35.293-0.001-70.313-7.011-89.577-13.013
					c-45.581-14.201-68.895-51.747-71.274-114.783c-1.105-29.297,8.89-51.926,29.711-67.259
					c17.234-12.692,38.884-18.478,57.787-22.463c20.968-4.419,40.261-6.661,57.343-6.661c30.804,0,55.464,7.271,73.297,21.609
					c14.673,11.797,22.261,26.354,27.231,37.719c6.331,14.473,10.544,37.605,10.996,60.371c0.394,19.842-1.793,48.773-14.445,73.923
					C614.53,266.531,576.144,271.835,546.176,271.835z M530.154,48.656c-17.013,0-36.236,2.234-57.136,6.639
					c-44.18,9.314-89.03,27.136-86.705,88.706c2.361,62.561,25.445,99.807,70.571,113.866c20.715,6.454,56.354,12.967,89.28,12.968
					c0.004,0,0.008,0,0.011,0c29.688,0,67.689-5.206,80.165-30.006c12.56-24.967,14.73-53.726,14.338-73.454
					c-0.449-22.643-4.631-45.63-10.912-59.99C622.74,91.323,604.076,48.656,530.154,48.656z"/>
			</g>
		</g>
		<g>
			<g>
				<path style="fill:#FFFFFF;" d="M430.035,99.45h-39.2c-6.815,0-12.021,5.861-11.604,12.947l1.057,18.01
					c0.384,6.564,5.883,11.711,12.259,11.614l28.363-0.427c1.48,4.401,2.564,8.683,5.401,8.475c2.03-0.2,2.9-4.493,3.478-8.636
					c5.949-0.369,10.848-5.439,11.071-11.689l0.638-17.63C441.748,105.18,436.63,99.45,430.035,99.45z"/>
				<path d="M426.113,150.576c-2.778,0-3.922-3.484-5.246-7.518c-0.104-0.317-0.209-0.637-0.316-0.958l-28.183,0.423
					c-6.658,0-12.184-5.309-12.58-12.087l-1.057-18.01c-0.214-3.642,1.039-7.19,3.439-9.734c2.275-2.413,5.353-3.742,8.665-3.742
					h39.2c3.173,0,6.151,1.276,8.387,3.594c2.402,2.49,3.705,5.985,3.575,9.587l-0.638,17.63
					c-0.226,6.297-5.08,11.549-11.133,12.138c-0.636,4.417-1.566,8.44-3.867,8.667C426.269,150.573,426.19,150.576,426.113,150.576z
					 M420.909,141.094c0.215,0,0.405,0.137,0.474,0.341c0.148,0.439,0.292,0.878,0.435,1.311c1.234,3.759,2.319,6.99,4.456,6.824
					c1.9-0.187,2.713-6.013,3.02-8.206c0.033-0.235,0.227-0.415,0.464-0.43c5.733-0.355,10.391-5.278,10.603-11.208l0.638-17.63
					c0.121-3.332-1.08-6.561-3.295-8.857c-2.045-2.12-4.767-3.288-7.667-3.288h-39.2c-3.034,0-5.853,1.217-7.938,3.428
					c-2.211,2.345-3.365,5.621-3.168,8.99l1.057,18.01c0.359,6.146,5.555,11.145,11.582,11.145l0.17-0.002l28.363-0.427
					C420.904,141.094,420.906,141.094,420.909,141.094z"/>
			</g>
			<path style="fill:#70BADB;" d="M398.386,121.286c0,2.173-1.721,3.935-3.843,3.935c-2.123,0-3.844-1.762-3.844-3.935
				c0-2.174,1.721-3.936,3.844-3.936C396.665,117.351,398.386,119.112,398.386,121.286z"/>
			<path style="fill:#70BADB;" d="M413.579,121.286c0,2.173-1.721,3.935-3.844,3.935c-2.122,0-3.844-1.762-3.844-3.935
				c0-2.174,1.722-3.936,3.844-3.936C411.858,117.351,413.579,119.112,413.579,121.286z"/>
			<path style="fill:#70BADB;" d="M428.771,121.286c0,2.173-1.721,3.935-3.843,3.935c-2.124,0-3.845-1.762-3.845-3.935
				c0-2.174,1.721-3.936,3.845-3.936C427.051,117.351,428.771,119.112,428.771,121.286z"/>
		</g>
		<g>
			<g>
				<path d="M556.111,438.118H517.19c-0.276,0-0.5-0.224-0.5-0.5c0-0.276,0.224-0.5,0.5-0.5h38.922c0.276,0,0.5,0.224,0.5,0.5
					C556.611,437.895,556.388,438.118,556.111,438.118z"/>
			</g>
			<path d="M441.082,296.445c-11.534-5.563-13.705-18.047,3.121-22.796c-11.806-14.52,0.135-22.933,8.142-24.562
				c8.006-1.628,23.882,2.443,39.215,15.605c15.334,13.162,21.983,13.841,26.597,24.153c4.613,10.313,2.442,18.319-2.172,28.768
				c-4.613,10.448-5.156,13.705,3.8,22.118c8.956,8.413,16.283,16.826,10.042,32.702c-6.242,15.876-80.874,10.041-84.402-0.815
				c-3.528-10.855,4.885-50.614,4.885-50.614L441.082,296.445z"/>
			<path d="M432.533,361.443c-1.765-7.734,0.284-25.493,15.74-34.331c11.273-6.446,17.233,2.579,17.233,2.579l1.764,29.717
				C467.27,359.408,436.332,361.579,432.533,361.443z"/>
			<g>
				<path style="fill:#FFFFFF;" d="M345.688,316.8c-1.356-1.899-3.389-4.499-5.288-3.142c-1.899,1.356,1.125,12.375,9.631,11.012
					C347.859,321.414,345.688,316.8,345.688,316.8z"/>
				<path d="M348.606,325.286c0,0-0.001,0-0.001,0c-4.767,0-7.707-3.896-8.775-7.23c-0.554-1.729-0.813-4.024,0.28-4.805
					c0.436-0.311,0.909-0.47,1.403-0.47c1.688,0,3.2,1.792,4.582,3.727c0.067,0.124,2.227,4.697,4.352,7.884
					c0.094,0.142,0.11,0.321,0.042,0.477c-0.068,0.156-0.211,0.267-0.379,0.294C349.602,325.245,349.096,325.286,348.606,325.286z
					 M341.513,313.781c-0.286,0-0.554,0.093-0.822,0.284c-0.372,0.265-0.546,1.693,0.092,3.686c1.012,3.159,3.598,6.535,7.823,6.535
					c0,0,0,0,0.001,0c0.186,0,0.376-0.007,0.566-0.02c-2.013-3.179-3.917-7.211-3.937-7.254
					C344.574,316.1,342.918,313.781,341.513,313.781z"/>
			</g>
			<g>
				<path style="fill:#FFFFFF;" d="M369.706,318.022c-4.613-1.493-7.599-5.156-6.105-8.143c1.492-2.984,6.377,0.95,9.77,3.664
					c3.393,2.714,6.649,3.257,6.649,3.257S374.998,319.378,369.706,318.022z"/>
				<path d="M372.935,318.916c-1.163,0-2.291-0.138-3.353-0.41c-3.093-1-5.564-2.973-6.48-5.155
					c-0.536-1.278-0.518-2.556,0.051-3.695c0.44-0.88,1.186-1.345,2.156-1.345c2.32,0,5.64,2.656,8.308,4.79
					c3.305,2.644,6.454,3.201,6.485,3.206c0.212,0.036,0.378,0.204,0.411,0.417c0.032,0.213-0.074,0.423-0.266,0.521
					C380.115,317.313,376.946,318.916,372.935,318.916z M365.31,309.31c-0.591,0-0.992,0.252-1.262,0.792
					c-0.441,0.883-0.45,1.846-0.024,2.861c0.806,1.922,3.042,3.678,5.836,4.582c0.951,0.242,1.995,0.37,3.075,0.37
					c2.27,0,4.287-0.563,5.536-1.013c-1.308-0.434-3.33-1.304-5.413-2.97C370.581,311.952,367.279,309.31,365.31,309.31z"/>
			</g>
			<g>
				<path style="fill:#FFFFFF;" d="M374.547,359.681c-0.361-7.962-1.266-23.883-2.532-28.948c-1.267-5.066-9.229-3.621-9.771-3.801
					c-0.542-0.181-10.448,3.573-15.333-6.332c-4.886-9.906-0.95-13.57,1.764-12.62c0.95-3.257,3.664-2.307,5.156-0.679
					c1.357-2.85,5.292,0.137,6.242,3.8c0.95,3.664,1.899,6.921,9.498,5.971c7.6-0.95,16.962-3.121,20.626,7.87
					c3.664,10.991,6.649,28.089,6.649,28.089S395.399,363.888,374.547,359.681z"/>
				<path d="M383.243,361.149c-2.617,0-5.576-0.329-8.795-0.979c-0.225-0.046-0.391-0.238-0.401-0.468
					c-0.244-5.383-1.148-23.37-2.518-28.85c-0.579-2.31-2.865-3.482-6.796-3.482c-0.639,0-1.205,0.029-1.634,0.052
					c-0.495,0.025-0.77,0.036-0.938,0.004c-0.108,0.008-0.299,0.051-0.56,0.103c-0.848,0.17-2.268,0.453-3.984,0.453
					c-4.988,0-8.845-2.477-11.156-7.162c-3.4-6.894-2.412-10.328-1.52-11.762c0.786-1.264,2.108-1.904,3.407-1.679
					c0.689-1.791,1.916-2.073,2.62-2.073c0.905,0,1.906,0.44,2.768,1.201c0.435-0.547,1.024-0.842,1.708-0.842
					c1.99,0,4.38,2.482,5.113,5.309c0.802,3.093,1.495,5.764,6.566,5.764c0.718,0,1.521-0.055,2.386-0.163
					c0.557-0.069,1.124-0.146,1.697-0.223c2.232-0.301,4.54-0.611,6.805-0.611c4.141,0,9.959,0.938,12.661,9.042
					c3.634,10.9,6.638,27.989,6.667,28.161c0.009,0.05,0.01,0.102,0.003,0.152C397.33,353.177,396.117,361.149,383.243,361.149z
					 M375.028,359.267c3.006,0.586,5.768,0.883,8.215,0.883c11.378,0,12.953-6.386,13.095-7.118
					c-0.233-1.317-3.138-17.497-6.616-27.932c-2.47-7.408-7.557-8.358-11.712-8.358c-2.197,0-4.472,0.306-6.671,0.602
					c-0.576,0.078-1.146,0.154-1.706,0.225c-0.906,0.113-1.75,0.171-2.51,0.171c-5.845,0-6.742-3.46-7.534-6.512
					c-0.666-2.568-2.775-4.561-4.145-4.561c-0.509,0-0.889,0.278-1.162,0.85c-0.071,0.15-0.213,0.255-0.377,0.279
					c-0.168,0.026-0.331-0.033-0.443-0.156c-0.753-0.821-1.708-1.332-2.494-1.332c-0.853,0-1.463,0.61-1.814,1.813
					c-0.039,0.132-0.129,0.242-0.251,0.305c-0.122,0.064-0.266,0.071-0.393,0.027c-0.98-0.341-2.08,0.107-2.718,1.135
					c-0.629,1.013-1.737,4.091,1.568,10.793c2.161,4.382,5.613,6.603,10.259,6.603c1.617,0,2.976-0.271,3.788-0.434
					c0.385-0.077,0.618-0.124,0.782-0.124c0.054,0,0.163,0.016,0.214,0.032c0.185-0.009,0.391-0.02,0.646-0.033
					c0.442-0.022,1.026-0.053,1.686-0.053c4.449,0,7.063,1.427,7.766,4.24C373.86,336.053,374.759,353.43,375.028,359.267z"/>
			</g>
			<g>
				<path d="M350.775,325.908c-0.106,0-0.214-0.034-0.305-0.104c-3.072-2.374-5.111-5.922-6.059-10.545
					c-0.056-0.27,0.119-0.535,0.389-0.591c0.274-0.055,0.535,0.119,0.59,0.39c0.899,4.382,2.813,7.732,5.691,9.955
					c0.219,0.169,0.259,0.482,0.09,0.701C351.073,325.842,350.925,325.908,350.775,325.908z"/>
			</g>
			<g>
				<path d="M363.601,324.085c-0.007,0-0.015,0-0.022,0c-2.795-0.122-5.11-1.317-6.88-3.554c-3.386-4.278-3.771-11.171-3.36-13.324
					c0.051-0.271,0.31-0.451,0.585-0.397c0.271,0.052,0.449,0.313,0.397,0.585c-0.373,1.954,0.021,8.548,3.162,12.516
					c1.581,1.999,3.647,3.067,6.139,3.175c0.276,0.013,0.49,0.246,0.478,0.521C364.088,323.875,363.867,324.085,363.601,324.085z"/>
			</g>
			<g>
				<path d="M358.309,327.748c-0.014,0-0.028-0.001-0.042-0.002c-2.612-0.218-4.792-1.436-6.479-3.619
					c-3.992-5.168-3.969-14.152-3.607-16.233c0.047-0.272,0.305-0.459,0.579-0.406c0.272,0.047,0.454,0.306,0.407,0.578
					c-0.346,1.985-0.374,10.547,3.413,15.45c1.508,1.952,3.45,3.041,5.771,3.234c0.275,0.022,0.479,0.265,0.456,0.54
					C358.785,327.551,358.566,327.748,358.309,327.748z"/>
			</g>
			<path d="M452.345,368.635c4.478,2.035,17.504,6.649,41.115,0.679c-0.815,16.283-2.442,50.614-2.442,50.614
				s-19.676,11.127-32.839,6.514C454.516,420.199,452.345,368.635,452.345,368.635z"/>
			<g>
				<path style="fill:#FFFFFF;" d="M456.375,355.75c3.935-0.543,8.182-2.041,7.774-8.555s-1.492-15.063-1.492-15.063
					c-10.177-0.135-20.219-5.428-24.832-15.876c-4.614-10.448,1.492-15.876,4.885-26.731c3.392-10.855,9.771-19.811,24.017-18.861
					c14.248,0.949,21.847,7.734,21.847,7.734c-2.442,12.755-4.885,30.803,0.407,31.889c5.292,1.085,6.65-8.277,6.65-8.277
					c8.006-3.936,16.392,0.854,13.162,7.869c-3.935,8.549-13.298,4.207-13.298,4.207c-1.899,4.885-9.905,10.313-9.905,10.313
					c1.221,10.042,2.437,26.652,10.035,27.602c-3.121,15.877-4.743,21.656-4.743,21.656s-27.274,6.648-37.181-3.121
					C454.108,367.143,456.375,355.75,456.375,355.75z"/>
				<path d="M472.243,376.365c-8.854,0-15.21-1.842-18.894-5.474c-0.109-0.109-0.163-0.263-0.145-0.416
					c0.404-3.373,2.587-14.357,2.68-14.823c0.041-0.209,0.211-0.368,0.422-0.397c3.847-0.531,7.727-1.899,7.344-8.028
					c-0.35-5.599-1.213-12.79-1.436-14.603c-11.07-0.302-20.564-6.465-24.847-16.165c-3.395-7.686-1.17-12.663,1.647-18.966
					c1.112-2.489,2.263-5.064,3.217-8.117c4.301-13.763,12.303-20.027,24.528-19.211c14.256,0.95,21.831,7.579,22.147,7.86
					c0.131,0.117,0.191,0.295,0.158,0.467c-3.665,19.141-3.659,30.551,0.017,31.305c0.25,0.052,0.497,0.078,0.734,0.078
					c4.121,0,5.309-7.857,5.319-7.936c0.025-0.164,0.127-0.305,0.275-0.377c1.955-0.961,4.056-1.469,6.076-1.469
					c3.318,0,6.15,1.328,7.576,3.554c1.182,1.846,1.247,4.134,0.185,6.441c-2.13,4.629-5.805,5.601-8.512,5.601
					c-2.208,0-4.117-0.622-4.974-0.951c-2.018,4.396-8.278,8.947-9.64,9.9c0.092,0.766,0.184,1.567,0.28,2.395
					c1.148,9.982,2.722,23.651,9.284,24.472c0.138,0.018,0.263,0.091,0.344,0.203c0.081,0.112,0.112,0.253,0.085,0.39
					c-3.089,15.715-4.735,21.637-4.752,21.694c-0.049,0.174-0.188,0.309-0.363,0.351
					C490.909,374.164,481.768,376.365,472.243,376.365z M454.228,370.35c3.518,3.329,9.576,5.016,18.015,5.016
					c8.461,0,16.622-1.76,18.234-2.128c0.352-1.326,1.911-7.411,4.558-20.832c-6.894-1.514-8.469-15.199-9.627-25.259
					c-0.107-0.934-0.211-1.835-0.314-2.688c-0.022-0.187,0.061-0.369,0.216-0.475c0.078-0.053,7.898-5.397,9.72-10.08
					c0.05-0.128,0.151-0.23,0.279-0.282c0.128-0.052,0.272-0.047,0.396,0.01c0.022,0.011,2.319,1.057,5.03,1.057
					c3.513,0,6.071-1.689,7.604-5.019c0.929-2.017,0.888-3.913-0.119-5.484c-1.24-1.936-3.758-3.093-6.733-3.093
					c-1.789,0-3.652,0.433-5.403,1.255c-0.26,1.496-1.722,8.527-6.267,8.527c-0.305,0-0.619-0.033-0.935-0.098
					c-4.458-0.915-4.745-11.743-0.853-32.184c-1.322-1.067-8.731-6.591-21.334-7.431c-11.838-0.787-19.306,5.066-23.507,18.512
					c-0.973,3.109-2.188,5.828-3.259,8.227c-2.716,6.076-4.86,10.875-1.646,18.153c4.18,9.465,13.521,15.435,24.382,15.578
					c0.249,0.003,0.458,0.189,0.489,0.438c0.011,0.085,1.092,8.639,1.495,15.094c0.428,6.843-4.169,8.467-7.852,9.03
					C456.425,358.078,454.653,367.107,454.228,370.35z"/>
			</g>
			<g>
				<path d="M453.158,310.244c-0.084,0-0.169-0.021-0.247-0.065c-2.863-1.631-4.364-3.23-4.589-4.887
					c-0.278-2.058,1.39-3.73,3.003-5.348c0.315-0.316,0.63-0.632,0.926-0.946c2.641-2.813,2.361-7.938,0.983-11.51
					c-0.591-1.531-1.588-2.439-2.963-2.695c-1.816-0.333-3.775,0.565-4.703,1.586c-0.186,0.205-0.501,0.22-0.706,0.034
					c-0.205-0.186-0.22-0.502-0.034-0.706c1.138-1.252,3.434-2.3,5.627-1.897c1.195,0.224,2.811,0.98,3.713,3.319
					c1.536,3.982,1.765,9.409-1.189,12.554c-0.302,0.321-0.623,0.644-0.946,0.968c-1.441,1.445-2.932,2.94-2.72,4.508
					c0.178,1.309,1.554,2.705,4.092,4.151c0.24,0.137,0.324,0.442,0.188,0.682C453.5,310.153,453.332,310.244,453.158,310.244z"/>
			</g>
			<g>
				<path d="M477.674,293.328c-0.161,0-0.318-0.078-0.415-0.222c-5.275-7.869-10.883-6.785-13.757-5.435
					c-0.247,0.117-0.546,0.01-0.665-0.241c-0.117-0.25-0.009-0.548,0.241-0.665c2.548-1.192,9.109-3.021,15.011,5.784
					c0.154,0.229,0.093,0.54-0.137,0.693C477.867,293.301,477.77,293.328,477.674,293.328z"/>
			</g>
			<path d="M469.618,300.443c-0.529,1.691-1.74,2.821-2.705,2.521c-0.964-0.302-1.317-1.919-0.789-3.612
				c0.527-1.692,1.739-2.821,2.702-2.518C469.791,297.135,470.146,298.749,469.618,300.443z"/>
			<g>
				<path d="M469.08,297.941c-0.216,0-0.416-0.141-0.479-0.358l-0.905-3.076c-0.078-0.266,0.073-0.543,0.338-0.621
					c0.269-0.077,0.544,0.072,0.621,0.338l0.905,3.076c0.078,0.266-0.073,0.543-0.338,0.621
					C469.174,297.935,469.127,297.941,469.08,297.941z"/>
			</g>
			<path d="M449.852,296.734c-0.528,1.691-1.739,2.82-2.704,2.521c-0.965-0.301-1.317-1.919-0.79-3.611
				c0.528-1.693,1.74-2.821,2.703-2.519C450.024,293.426,450.381,295.04,449.852,296.734z"/>
			<g>
				<path d="M449.314,294.232c-0.216,0-0.416-0.141-0.479-0.358l-0.905-3.077c-0.078-0.266,0.073-0.543,0.339-0.621
					c0.263-0.079,0.543,0.072,0.62,0.338l0.905,3.078c0.078,0.265-0.073,0.542-0.338,0.62
					C449.408,294.226,449.361,294.232,449.314,294.232z"/>
			</g>
			<g>
				<path d="M452.959,320.282c-1.054,0-1.937-0.363-2.624-1.081c-1.215-1.27-1.757-3.622-1.61-6.99
					c0.009-0.194,0.129-0.366,0.309-0.44c0.179-0.074,0.385-0.038,0.528,0.093c0.717,0.655,2.819,1.42,6.387,1.42
					c2.226,0,4.677-0.313,7.088-0.903c0.216-0.052,0.435,0.04,0.547,0.227c0.113,0.187,0.092,0.425-0.052,0.589
					C459.573,317.699,455.72,320.282,452.959,320.282z M449.702,313.156c-0.011,2.569,0.453,4.41,1.355,5.353
					c1.903,1.985,6.139-0.044,10.666-4.817C456.881,314.641,452.012,314.364,449.702,313.156z"/>
			</g>
			<g>
				<path d="M450.852,319.381c-0.085,0-0.171-0.021-0.249-0.066c-0.239-0.138-0.322-0.443-0.185-0.683
					c1.176-2.046,5.952-3.322,8.804-2.355c0.262,0.089,0.402,0.373,0.313,0.634c-0.088,0.262-0.374,0.4-0.634,0.313
					c-2.581-0.876-6.744,0.39-7.616,1.906C451.193,319.291,451.025,319.381,450.852,319.381z"/>
			</g>
			<g>
				<path d="M462.444,332.679c-0.293-0.003-0.559-0.206-0.558-0.502c0.001-0.275,0.225-0.498,0.5-0.498c0.022-0.002,0.04,0,0.06,0
					c5.066,0,13.232-2.922,18.702-5.82c0.244-0.131,0.548-0.037,0.676,0.207c0.13,0.244,0.037,0.547-0.207,0.676
					C476.037,329.698,467.675,332.679,462.444,332.679z"/>
			</g>
			<path style="fill:#70BADB;" d="M374.185,357.373c2.307,0.814,13.569,0.814,22.661-4.343c1.492,8.277,7.056,32.974,7.056,32.974
				c7.734-8.413,18.454-18.318,23.34-22.525c4.885-4.206,12.348-8.277,19.675-8.006c7.328,0.271,11.127-0.136,11.127-0.136
				s-5.834,10.313-2.849,38.944c2.984,28.632,3.935,32.431,3.935,32.431l-10.041-0.949c0,0,2.035-6.378-4.071-13.705
				c-6.106-7.328-7.87-11.941-8.685-17.369c-6.513,6.649-23.882,25.103-38.401,25.239c-14.519,0.136-19.676-12.891-21.711-29.175
				C374.185,374.47,374.185,357.373,374.185,357.373z"/>
			<g>
				<path style="fill:#FFFFFF;" d="M486,419.75c-4.071,1.221-21.579,6.42-29.585,5.877c-8.006-0.543-16.283-4.479-22.797-2.85
					c-6.513,1.628-17.686,9.838-16.894,13.094c0.61,2.511,3.596,1.154,3.596,1.154c1.086,2.307,3.257,1.085,3.257,1.085
					c1.086,2.308,6.107,0.95,9.092-1.628c2.985-2.578,6.648-3.935,11.263-2.307c4.613,1.628,11.805,3.935,20.218,4.342
					c8.413,0.407,28.226-0.518,28.226-0.518S495.362,426.263,486,419.75z"/>
				<path d="M425.977,439.792c-1.423,0-2.189-0.507-2.601-1.052c-0.275,0.097-0.657,0.193-1.079,0.193
					c-0.665,0-1.557-0.235-2.209-1.288c-0.354,0.114-0.88,0.246-1.433,0.246c-1.26,0-2.118-0.676-2.417-1.902
					c-0.945-3.89,11.006-12.134,17.259-13.697c1.096-0.273,2.265-0.407,3.575-0.407c3.147,0,6.49,0.772,10.029,1.59
					c3.071,0.71,6.246,1.443,9.348,1.653c7.044,0.486,21.642-3.528,29.407-5.856c0.146-0.044,0.305-0.019,0.429,0.068
					c9.537,6.634,6.605,18.663,6.574,18.783c-0.054,0.214-0.241,0.366-0.461,0.376c-0.134,0.007-13.427,0.622-22.764,0.622
					c-0.001,0,0,0-0.001,0c-2.228,0-4.081-0.035-5.509-0.104c-8.194-0.397-15.185-2.543-20.359-4.369
					c-3.927-1.385-7.432-0.671-10.77,2.214C430.997,438.587,428.111,439.792,425.977,439.792z M423.577,437.611
					c0.052,0,0.104,0.008,0.153,0.024c0.132,0.042,0.24,0.137,0.299,0.262c0.348,0.739,1.251,0.895,1.947,0.895
					c1.916,0,4.533-1.105,6.365-2.689c3.613-3.12,7.486-3.906,11.756-2.399c5.111,1.804,12.012,3.924,20.076,4.314
					c1.412,0.068,3.249,0.103,5.46,0.103c8.422,0,20.079-0.502,22.333-0.603c0.385-1.973,1.785-11.592-6.057-17.219
					c-7.893,2.359-22.395,6.314-29.529,5.827c-3.181-0.216-6.396-0.959-9.504-1.677c-3.483-0.805-6.772-1.564-9.805-1.564
					c-1.228,0-2.317,0.124-3.333,0.378c-6.551,1.637-17.21,9.691-16.529,12.49c0.189,0.776,0.648,1.139,1.445,1.139
					c0.735,0,1.452-0.318,1.459-0.322c0.25-0.109,0.543-0.003,0.658,0.243c0.355,0.754,0.855,1.121,1.524,1.121
					c0.558,0,1.032-0.258,1.037-0.26C423.409,437.632,423.492,437.611,423.577,437.611z"/>
			</g>
			<g>
				<path style="fill:#70BADB;" d="M547.466,410.157c-5.971-16.012-11.127-33.38-16.012-41.251
					c-4.885-7.87-10.72-15.197-21.575-16.283c-7.87-0.543-14.927-0.814-14.927-0.814c-2.578,6.785-10.855,39.623-6.513,67.169
					c-1.9,0-3.257,1.086-3.257,1.086c4.342,3.528,6.784,9.905,5.699,18.454c18.861,1.492,38.809-1.492,45.321-3.121
					C542.717,433.769,553.436,426.17,547.466,410.157z M509.2,415.178l0.95-11.397l3.121,10.584L509.2,415.178z"/>
			</g>
			<g>
				<path d="M366.9,317.658c-0.262,0-0.482-0.204-0.499-0.469c-0.017-0.275,0.192-0.513,0.468-0.53
					c0.932-0.059,2.054-0.164,3.276-0.279c4.101-0.388,9.204-0.867,12.255-0.081c0.268,0.069,0.428,0.342,0.359,0.609
					c-0.069,0.267-0.341,0.428-0.609,0.359c-2.886-0.745-7.89-0.272-11.911,0.107c-1.234,0.116-2.367,0.224-3.308,0.282
					C366.921,317.658,366.91,317.658,366.9,317.658z"/>
			</g>
			<g>
				<path d="M436.738,397.495c-0.233,0-0.441-0.164-0.489-0.402c-0.907-4.54,0.107-10.36,1.516-14.114
					c0.097-0.259,0.387-0.393,0.644-0.292c0.259,0.097,0.39,0.385,0.292,0.644c-1.013,2.702-2.464,8.6-1.471,13.567
					c0.054,0.271-0.121,0.534-0.393,0.588C436.804,397.492,436.771,397.495,436.738,397.495z"/>
			</g>
			<g>
				<path d="M485.484,420.2c-0.222,0-0.424-0.148-0.483-0.372c-0.07-0.267,0.089-0.541,0.355-0.611
					c4.389-1.162,31.883-6.556,41.577-7.387c0.271-0.024,0.517,0.18,0.541,0.455c0.023,0.275-0.181,0.518-0.455,0.541
					c-9.653,0.828-37.035,6.2-41.407,7.357C485.569,420.195,485.526,420.2,485.484,420.2z"/>
			</g>
			<g>
				<path d="M510.828,406.044c-0.212,0-0.408-0.136-0.477-0.348c-0.982-3.069-3.396-12.751-4.556-17.404l-0.338-1.352
					c-0.066-0.268,0.096-0.539,0.364-0.607c0.264-0.067,0.539,0.096,0.606,0.364l0.338,1.353c1.157,4.643,3.566,14.304,4.538,17.342
					c0.084,0.263-0.061,0.545-0.324,0.629C510.93,406.036,510.879,406.044,510.828,406.044z"/>
			</g>
			<g>
				<path d="M423.578,438.61c-0.016,0-0.031-0.001-0.046-0.002c-0.275-0.025-0.479-0.269-0.453-0.543
					c0.165-1.817,7.472-7.914,14.065-9.798c0.269-0.08,0.543,0.078,0.618,0.343c0.076,0.266-0.077,0.543-0.343,0.618
					c-6.635,1.896-13.238,7.751-13.345,8.927C424.052,438.415,423.833,438.61,423.578,438.61z"/>
			</g>
			<g>
				<path d="M420.32,437.525c-0.276,0-0.5-0.224-0.5-0.5c0-2.608,5.476-8.109,14.056-10.791c0.268-0.083,0.544,0.065,0.627,0.328
					c0.082,0.264-0.064,0.544-0.328,0.627c-8.81,2.753-13.354,8.142-13.354,9.836C420.82,437.302,420.597,437.525,420.32,437.525z"
					/>
			</g>
			<g>
				<path style="fill:#F2AC30;" d="M455.731,436.635H412.88l-17.244-50.364c-1.505-4.392-6.534-7.985-11.176-7.985h-73.178
					c-4.641,0-7.208,3.594-5.705,7.985l17.764,51.882c1.943,5.037,2.171,9.183,7.221,9.183h125.17c2.953,0,5.35-2.395,5.35-5.352
					C461.081,439.029,458.685,436.635,455.731,436.635z"/>
				<g>
					<path d="M409.102,438.065h-85.108c-0.276,0-0.5-0.224-0.5-0.5c0-0.276,0.224-0.5,0.5-0.5h85.108c0.276,0,0.5,0.224,0.5,0.5
						C409.602,437.841,409.378,438.065,409.102,438.065z"/>
				</g>
				<g>
					<path d="M358.025,420.098c-3.698,0-7.765-3.669-9.067-8.18c-0.747-2.582-0.477-4.991,0.741-6.611
						c0.894-1.189,2.247-1.844,3.81-1.844c3.7,0,7.766,3.67,9.065,8.18c0.747,2.58,0.477,4.99-0.742,6.611
						C360.938,419.443,359.587,420.098,358.025,420.098z M353.509,404.463c-1.259,0-2.3,0.499-3.01,1.444
						c-1.027,1.366-1.238,3.456-0.58,5.733c1.187,4.112,4.824,7.457,8.107,7.457c1.257,0,2.297-0.499,3.007-1.444
						c1.028-1.368,1.24-3.457,0.581-5.733C360.429,407.808,356.793,404.463,353.509,404.463z"/>
				</g>
			</g>
		</g>
	</g>
</g>
</svg>
