<svg xmlns="http://www.w3.org/2000/svg" viewBox="0 0 500 500"><g id="freepik--Character--inject-8"><g id="freepik--Monster--inject-8"><path d="M152.59,274.36c-4.22-.17-6.08.25-5.43,4.71s.85,7.9.85,7.9,7.51.22,11-1.73S158.93,274.61,152.59,274.36Z" style="fill:#BA68C8"></path><path d="M152.59,274.36c-4.22-.17-6.08.25-5.43,4.71s.85,7.9.85,7.9,7.51.22,11-1.73S158.93,274.61,152.59,274.36Z" style="opacity:0.5"></path><path d="M153.26,293.52a4.56,4.56,0,0,1-.82-.08,4.26,4.26,0,0,1-3.35-5c1.09-5.54,2.17-9.82,3.13-13.59a108.4,108.4,0,0,0,3.15-16,41,41,0,0,0-5.18-24.15,4.24,4.24,0,1,1,7.3-4.33,49.29,49.29,0,0,1,6.32,29.4,114.15,114.15,0,0,1-3.36,17.14c-.92,3.67-2,7.83-3,13.15A4.25,4.25,0,0,1,153.26,293.52Z" style="fill:#455a64"></path><path d="M143.1,299.26a5.29,5.29,0,0,0,0,2.49c.59,1.1,3.86,2.45,5.58,3.16a10,10,0,0,1,5.42,5c1.92,3.51,5.42,5.88,9.33,7.37a27.44,27.44,0,0,0,16.3.59c6.69-1.67,7-5.7,7-5.7s.1-3.78-1.62-4.26S143.1,299.26,143.1,299.26Z" style="fill:#455a64"></path><path d="M145.8,285.22a26.77,26.77,0,0,1-.81,3.52c-1,3.17-2.55,6.44-1.89,10.52,1.1,2,3.4,2.7,5.12,3.46,2.31,1,4,1.71,5.63,3.71,3,3.59,5.81,8.13,14.79,9.3s15.52-2.1,17-4.74-.18-4.91-6.07-7.59c-3-1.37-9.81-7-10.59-7.72a14.83,14.83,0,0,1-1.92-2.41,14.61,14.61,0,0,1-2.4-6,21,21,0,0,1,.33-6.83c.1-.52.36-1.06.14-1.53-.57-1.26-2.54-.93-3.63-.84a36.26,36.26,0,0,0-4.84.83,2.79,2.79,0,0,0-1.44.61,2.92,2.92,0,0,0-.63,1.38c-.21.75-.43,1.5-.67,2.23a2.06,2.06,0,0,1-.88,1.31,1.31,1.31,0,0,1-1.46-.36,2.39,2.39,0,0,1-.55-1.46c0-.54,0-1.07.06-1.6a2.51,2.51,0,0,0-.29-1.48c-.59-.93-2.08-1.08-2.46-2.11a1.59,1.59,0,0,1,.45-1.61,2.83,2.83,0,0,1,1.61-.66,12.68,12.68,0,0,1,1.75,0l.32-1.24a7.67,7.67,0,0,0-4.09.52,3.69,3.69,0,0,0-1.87,1.76,5.33,5.33,0,0,0-.15,3.07C146.61,281.6,146.18,282.88,145.8,285.22Z" style="fill:#BA68C8"></path><path d="M145.8,285.22a26.77,26.77,0,0,1-.81,3.52c-1,3.17-2.55,6.44-1.89,10.52,1.1,2,3.4,2.7,5.12,3.46,2.31,1,4,1.71,5.63,3.71,3,3.59,5.81,8.13,14.79,9.3s15.52-2.1,17-4.74-.18-4.91-6.07-7.59c-3-1.37-9.81-7-10.59-7.72a14.83,14.83,0,0,1-1.92-2.41,14.61,14.61,0,0,1-2.4-6,21,21,0,0,1,.33-6.83c.1-.52.36-1.06.14-1.53-.57-1.26-2.54-.93-3.63-.84a36.26,36.26,0,0,0-4.84.83,2.79,2.79,0,0,0-1.44.61,2.92,2.92,0,0,0-.63,1.38c-.21.75-.43,1.5-.67,2.23a2.06,2.06,0,0,1-.88,1.31,1.31,1.31,0,0,1-1.46-.36,2.39,2.39,0,0,1-.55-1.46c0-.54,0-1.07.06-1.6a2.51,2.51,0,0,0-.29-1.48c-.59-.93-2.08-1.08-2.46-2.11a1.59,1.59,0,0,1,.45-1.61,2.83,2.83,0,0,1,1.61-.66,12.68,12.68,0,0,1,1.75,0l.32-1.24a7.67,7.67,0,0,0-4.09.52,3.69,3.69,0,0,0-1.87,1.76,5.33,5.33,0,0,0-.15,3.07C146.61,281.6,146.18,282.88,145.8,285.22Z" style="opacity:0.35000000000000003"></path><path d="M162.68,314.17a11.66,11.66,0,0,1,6-10.24c6.45-3.86,10.66-1.93,12.81-.6,2.55,1.59,6.28,5,4.34,7.82-2.09,3-5.66,4.63-12.47,5.17S162.68,314.17,162.68,314.17Z" style="fill:#fafafa"></path><path d="M153.78,291a.74.74,0,0,0,.64-.25c.89-.95,6.3-4.22,10.39-2.54.1-.15.27-1.15-.22-1.46a12.74,12.74,0,0,0-11.32,3,.72.72,0,0,0,.07,1A.83.83,0,0,0,153.78,291Z" style="fill:#fafafa"></path><path d="M166.53,292.49a2.09,2.09,0,0,0-.66-1.53c-4.66-.66-9.34,2.27-10.37,3.38a.72.72,0,0,0,.08,1,.74.74,0,0,0,.44.18.76.76,0,0,0,.64-.24C157.52,294.39,162.85,291.3,166.53,292.49Z" style="fill:#fafafa"></path><path d="M173.58,299.42c-.07-.48-1-1.2-1.79-1.4-5.15-.35-9.5,3.57-10.35,4.87a.71.71,0,0,0,.24,1,.8.8,0,0,0,.47.11.79.79,0,0,0,.59-.34C163.5,302.51,168.7,298.12,173.58,299.42Z" style="fill:#fafafa"></path><path d="M158.7,300a.83.83,0,0,0,.61-.31c.75-1.05,5.27-5,9.92-3.81,0-.41-.82-1.22-1.24-1.33-4.61-.42-9.07,3.07-10,4.3a.72.72,0,0,0,.19,1A.82.82,0,0,0,158.7,300Z" style="fill:#fafafa"></path><path d="M105.66,289.11c-4.2-.34-6.09,0-5.62,4.48s.52,7.93.52,7.93,7.49.53,11.06-1.27S112,289.63,105.66,289.11Z" style="fill:#BA68C8"></path><path d="M105.66,289.11c-4.2-.34-6.09,0-5.62,4.48s.52,7.93.52,7.93,7.49.53,11.06-1.27S112,289.63,105.66,289.11Z" style="opacity:0.5"></path><path d="M105.53,308.28a4.61,4.61,0,0,1-.82-.11,4.24,4.24,0,0,1-3.13-5.13c1.32-5.49,2.58-9.71,3.69-13.45a106.87,106.87,0,0,0,3.82-15.83,41,41,0,0,0-4.16-24.34,4.25,4.25,0,0,1,7.48-4A49.4,49.4,0,0,1,117.49,275a113.91,113.91,0,0,1-4.08,17c-1.08,3.63-2.3,7.74-3.57,13A4.25,4.25,0,0,1,105.53,308.28Z" style="fill:#455a64"></path><path d="M95.14,313.59a5.2,5.2,0,0,0-.13,2.49c.54,1.12,3.74,2.61,5.43,3.39a10,10,0,0,1,5.2,5.26c1.78,3.58,5.18,6.1,9,7.75a27.44,27.44,0,0,0,16.26,1.27c6.75-1.38,7.2-5.4,7.2-5.4s.26-3.77-1.44-4.32S95.14,313.59,95.14,313.59Z" style="fill:#455a64"></path><path d="M98.42,299.68a28,28,0,0,1-1,3.48c-1.1,3.13-2.82,6.32-2.33,10.43,1,2,3.27,2.84,5,3.68,2.27,1.12,3.9,1.87,5.47,3.94,2.82,3.71,5.46,8.37,14.39,9.91s15.6-1.45,17.18-4,0-4.91-5.75-7.84c-2.93-1.49-9.51-7.38-10.26-8.15a16.7,16.7,0,0,1-4-8.58,21.2,21.2,0,0,1,.61-6.81c.13-.51.41-1,.21-1.53-.52-1.28-2.5-1-3.59-1a34.7,34.7,0,0,0-4.87.63,2.81,2.81,0,0,0-1.47.55,3,3,0,0,0-.69,1.35c-.23.74-.48,1.48-.76,2.21a2.05,2.05,0,0,1-.93,1.26,1.31,1.31,0,0,1-1.44-.41,2.34,2.34,0,0,1-.49-1.49,14.18,14.18,0,0,1,.13-1.6,2.6,2.6,0,0,0-.23-1.49c-.55-.95-2-1.16-2.37-2.21a1.53,1.53,0,0,1,.52-1.58,2.64,2.64,0,0,1,1.63-.59,13.11,13.11,0,0,1,1.76,0l.36-1.22a7.73,7.73,0,0,0-4.11.34,3.7,3.7,0,0,0-1.94,1.69,5.38,5.38,0,0,0-.28,3.05C99.38,296.1,98.9,297.35,98.42,299.68Z" style="fill:#BA68C8"></path><path d="M98.42,299.68a28,28,0,0,1-1,3.48c-1.1,3.13-2.82,6.32-2.33,10.43,1,2,3.27,2.84,5,3.68,2.27,1.12,3.9,1.87,5.47,3.94,2.82,3.71,5.46,8.37,14.39,9.91s15.6-1.45,17.18-4,0-4.91-5.75-7.84c-2.93-1.49-9.51-7.38-10.26-8.15a16.7,16.7,0,0,1-4-8.58,21.2,21.2,0,0,1,.61-6.81c.13-.51.41-1,.21-1.53-.52-1.28-2.5-1-3.59-1a34.7,34.7,0,0,0-4.87.63,2.81,2.81,0,0,0-1.47.55,3,3,0,0,0-.69,1.35c-.23.74-.48,1.48-.76,2.21a2.05,2.05,0,0,1-.93,1.26,1.31,1.31,0,0,1-1.44-.41,2.34,2.34,0,0,1-.49-1.49,14.18,14.18,0,0,1,.13-1.6,2.6,2.6,0,0,0-.23-1.49c-.55-.95-2-1.16-2.37-2.21a1.53,1.53,0,0,1,.52-1.58,2.64,2.64,0,0,1,1.63-.59,13.11,13.11,0,0,1,1.76,0l.36-1.22a7.73,7.73,0,0,0-4.11.34,3.7,3.7,0,0,0-1.94,1.69,5.38,5.38,0,0,0-.28,3.05C99.38,296.1,98.9,297.35,98.42,299.68Z" style="opacity:0.35000000000000003"></path><path d="M114.07,329.31a11.66,11.66,0,0,1,6.42-10c6.61-3.59,10.74-1.49,12.83-.06,2.48,1.69,6.06,5.27,4,8-2.22,2.93-5.85,4.39-12.68,4.64S114.07,329.31,114.07,329.31Z" style="fill:#fafafa"></path><path d="M106.16,305.74a.76.76,0,0,0,.65-.21c.92-.92,6.46-4,10.48-2.1.11-.16.32-1.14-.16-1.47a12.74,12.74,0,0,0-11.44,2.54.71.71,0,0,0,0,1A.77.77,0,0,0,106.16,305.74Z" style="fill:#fafafa"></path><path d="M118.83,307.82a2,2,0,0,0-.6-1.56c-4.62-.86-9.42,1.87-10.49,2.94a.71.71,0,0,0,0,1,.79.79,0,0,0,1.08,0C109.75,309.33,115.2,306.47,118.83,307.82Z" style="fill:#fafafa"></path><path d="M125.58,315c0-.48-1-1.24-1.73-1.47-5.13-.57-9.64,3.17-10.55,4.43a.71.71,0,0,0,.21,1,.77.77,0,0,0,.46.13.81.81,0,0,0,.61-.32C115.38,317.7,120.76,313.53,125.58,315Z" style="fill:#fafafa"></path><path d="M110.68,315a.82.82,0,0,0,.63-.29c.8-1,5.47-4.78,10.07-3.39.05-.41-.77-1.24-1.18-1.38-4.59-.61-9.19,2.69-10.12,3.88a.71.71,0,0,0,.15,1A.76.76,0,0,0,110.68,315Z" style="fill:#fafafa"></path><path d="M214.06,215.4c-4.06,0-9.12-1.43-14.74-5.26a3,3,0,0,1,3.43-5c7.56,5.16,13,4.56,15,3.39a4.28,4.28,0,0,0,1.65-3.09c.48-3-.5-7.82-4.68-12.54-8.84-10-19.93-15.11-37.09-17.16a3,3,0,0,1,.72-6c18.52,2.2,31.13,8.11,40.91,19.16,4.74,5.35,7,11.9,6.14,17.52a10,10,0,0,1-4.59,7.36A13.22,13.22,0,0,1,214.06,215.4Z" style="fill:#455a64"></path><path d="M175.68,137.58c4.59-4.33,8.64-17.05,6.55-30.41S167.8,81.32,162.88,78.61s-8.38.79-7,5.78c1.82,6.77,4.09,22-8.56,28.73A44.41,44.41,0,0,0,155.67,131C162.19,138.87,175.68,137.58,175.68,137.58Z" style="fill:#BA68C8"></path><path d="M175.68,137.58c4.59-4.33,8.64-17.05,6.55-30.41S167.8,81.32,162.88,78.61s-8.38.79-7,5.78c1.82,6.77,4.09,22-8.56,28.73A44.41,44.41,0,0,0,155.67,131C162.19,138.87,175.68,137.58,175.68,137.58Z" style="fill:#fff;opacity:0.75"></path><path d="M158.52,87a10.91,10.91,0,0,1-3.24-.48.62.62,0,0,1-.4-.77.61.61,0,0,1,.77-.39c4,1.27,9.35-.21,10.7-4.37a.6.6,0,1,1,1.15.37C166.29,85.11,162.34,87,158.52,87Z" style="fill:#BA68C8"></path><path d="M163.07,95.41a13.21,13.21,0,0,1-6.68-1.86.61.61,0,0,1,.6-1.06,11.76,11.76,0,0,0,9,1.35c5.52-1.33,6.7-4.56,6.95-5.89a.61.61,0,1,1,1.19.22c-.3,1.56-1.65,5.35-7.86,6.85A14,14,0,0,1,163.07,95.41Z" style="fill:#BA68C8"></path><path d="M169.35,105.93h0a18.41,18.41,0,0,1-13.54-5.7.61.61,0,0,1,0-.86.6.6,0,0,1,.86,0,17.14,17.14,0,0,0,12.66,5.31h0c7.8,0,10.11-3.66,11.1-5.22a.6.6,0,0,1,.84-.19.61.61,0,0,1,.19.84C180.47,101.72,177.81,105.93,169.35,105.93Z" style="fill:#BA68C8"></path><path d="M172.53,118.13a22.31,22.31,0,0,1-7.08-1.15c-5.74-1.94-9.89-5.27-12.32-9.89a.61.61,0,0,1,1.07-.57c2.32,4.41,6.12,7.45,11.64,9.31,7.6,2.56,14.86,0,16.89-1.86a.61.61,0,0,1,.82.89C182,116.33,177.74,118.13,172.53,118.13Z" style="fill:#BA68C8"></path><path d="M157.19,126.73c10.89-12.43,6.68-32,4-37.64-3.77-7.9-2.17-11.37,1.13-10.75-4.61-2.14-7.76,1.26-6.48,6,1.82,6.77,4.09,22-8.56,28.73a45.33,45.33,0,0,0,7.18,16.3A23.74,23.74,0,0,0,157.19,126.73Z" style="opacity:0.1"></path><path d="M185.68,211.35c-3.7-9-5.54-33.91-4.78-50.27,2.48-.52,5.51-3.9,4.29-8.27-1.1-3.93-2.17-4.45-5.49-8.69-2.36-3-4-7-6.12-10.28-7.28-11.14-16.53-18.57-30.15-21.78a4.21,4.21,0,0,1-3.07-5.26c.87-3,1.61-6.92.7-9.8-1.69-5.32-5.05-5.86-7.27-4.87s-2.39,3.19-1.72,6.76-.38,4.2-1.57,3.82-2.08-6.88-10.39-9.93-13.92,1-13.78,4.38c.15,3.75,2.87,4,8.64,4.66a11.46,11.46,0,0,1,6.71,3,4.23,4.23,0,0,1-2.19,7.06C98.36,116.57,82,134.18,77.31,157.94a103.43,103.43,0,0,0-1.48,12.91h0a11.16,11.16,0,0,0-6.66-5.1c-4.08-1-5.7.95-5.64,2.77s2.32,2.69,4.61,3.64c3.67,1.52,4.27,2.93,4.27,2.93a11.43,11.43,0,0,0-5.68.57c-2.51,1.11-3.17,3.82-.74,4.86,1.35.57,3.42-.46,5.55-1,1.34-.31,3.82-.81,4,.8h0c0,3.77,0,7.7.09,11.75.31,11.41,2.31,19.22.49,29.57-1.39,7.84-8.25,14-1.36,20.51a10.66,10.66,0,0,0,9.5,2.63,4.33,4.33,0,0,1,5,3.32c.77,3.25,3.12,7.21,9.76,9,6.12,1.62,10-.24,12.43-2.51a4.13,4.13,0,0,1,6,.16c2.55,3.05,7.28,6.32,15.83,6.28s12.85-3.75,15-6.91a4.24,4.24,0,0,1,5.65-1.39c3.24,1.92,8.46,3.46,15,0,4.83-2.58,6.08-7.21,6.2-11a4.17,4.17,0,0,1,4.74-4,9.64,9.64,0,0,0,10.09-4.28C194.53,226.49,189,219.46,185.68,211.35Z" style="fill:#BA68C8"></path><g style="opacity:0.1"><path d="M68.14,172.16c3.67,1.52,4.27,2.93,4.27,2.93a11.43,11.43,0,0,0-5.68.57c-2.51,1.11-3.17,3.82-.74,4.86,1.35.57,3.42-.46,5.55-1,1.34-.31,3.82-.81,4,.8h0c0,3.77,0,7.7.09,11.75.31,11.41,2.31,19.22.49,29.57-1.39,7.84-8.25,14-1.36,20.51a10.07,10.07,0,0,0,5.09,2.62c-.21-.11-3.43-5.29.37-12.76,5.34-10.51,5-17.08,3.61-38.37-1.71-26,1.48-37.17,10.93-55.57,9.69-18.86,25.09-19.77,31.63-24.77,3.56-2.72,2.34-7.65-.77-10.78-2.61-2.63-6.69-3.7-9.1-3.95-5.26-.54-10.15-1.46-9.16-4.09a3.93,3.93,0,0,0-1,2.63c.15,3.75,2.87,4,8.64,4.66a11.46,11.46,0,0,1,6.71,3,4.23,4.23,0,0,1-2.19,7.06C98.36,116.57,82,134.18,77.31,157.94a103.43,103.43,0,0,0-1.48,12.91h0a11.16,11.16,0,0,0-6.66-5.1c-4.08-1-5.7.95-5.64,2.77S65.85,171.21,68.14,172.16Z"></path><path d="M94.72,248.25c-2.68-3.54-4.85-4.12-8.58-3.33h0a4.32,4.32,0,0,1,3.1,3.22c.77,3.25,3.12,7.21,9.76,9,4.32,1.15,7.55.55,9.91-.7C99.3,258.5,97.41,251.78,94.72,248.25Z"></path><path d="M140.8,259.81c-4.73.62-9.16-.45-14.14-4.1-5.37-3.93-8-3.56-11.32-2.23h0a3.82,3.82,0,0,1,2.1,1.28c2.55,3.05,7.28,6.32,15.83,6.28A22.48,22.48,0,0,0,140.8,259.81Z"></path><path d="M134.27,97.34c-.18-3.16,1.83-5.54,4.31-4.5a4.45,4.45,0,0,0-4.79-.71c-2.23,1-2.39,3.19-1.72,6.76s-.38,4.2-1.57,3.82a1.26,1.26,0,0,1-.54-.56h0c.92,2,1.81,4,3.89,2.92S134.45,100.49,134.27,97.34Z"></path></g><path d="M114.15,169.43a6.49,6.49,0,0,0,6.5,4.82c5.35-.07,5.94-2.5,8.13-5.82s6.9-4.06,11-4.13a6.65,6.65,0,0,0,5.72-9.4,5.76,5.76,0,0,1-2.72,5.49c-3.28,2.14-7.64.21-11.93,2.26s-4.66,6.68-7.81,8.15A8.64,8.64,0,0,1,114.15,169.43Z" style="opacity:0.2"></path><path d="M139.21,166.66a8,8,0,0,1-14.87,3.23c2.12-2,2.92-5.4,6.5-7.24,2.83-1.44,5-.78,7.35-.85A8.06,8.06,0,0,1,139.21,166.66Z" style="fill:#455a64"></path><path d="M119.75,172a8,8,0,0,1-7.86-4.82.61.61,0,0,1,.31-.8.6.6,0,0,1,.8.31c.92,2.08,3,4.47,7.81,4.05,2.69-.23,3.73-1.84,5-3.88a12.22,12.22,0,0,1,4.71-4.79,10.46,10.46,0,0,1,5.88-1,8.72,8.72,0,0,0,6.26-1.45,4.75,4.75,0,0,0,2.17-4,7,7,0,0,0-1.94-5,.61.61,0,0,1-.13-.85.59.59,0,0,1,.84-.13c1.21.88,2.48,3.49,2.44,6a6,6,0,0,1-2.7,5,9.91,9.91,0,0,1-7,1.66,9.25,9.25,0,0,0-5.27.83,11,11,0,0,0-4.24,4.36c-1.32,2-2.69,4.15-6,4.43C120.51,172,120.12,172,119.75,172Z" style="fill:#455a64"></path><path d="M137.12,165.79a2.21,2.21,0,1,1-2.18-2.23A2.2,2.2,0,0,1,137.12,165.79Z" style="fill:#f5f5f5"></path><path d="M180.89,161.35l-.53-.27a5.6,5.6,0,0,1-3-1.12c-1.07-1-2.27-4.23-5.69-5.06s-5.34.83-9.14,1-5.07-2.46-5.83-4.66c-.41,3.73.65,6.23,3.35,7.33,3,1.22,8.44-1.34,10.76,0s3.66,4.11,6.55,4.43a5.16,5.16,0,0,0,3.45-.69C180.86,162,180.88,161.67,180.89,161.35Z" style="opacity:0.2"></path><path d="M177.4,160a7.69,7.69,0,0,1-15.1-2.74,7.47,7.47,0,0,1,.27-1.33c2.82-.07,5.39-2,9.14-1C175,155.81,175.23,158.42,177.4,160Z" style="fill:#455a64"></path><path d="M180.81,161.69a7.77,7.77,0,0,1-2.45-.52,7.44,7.44,0,0,1-3.38-3,5.86,5.86,0,0,0-3.44-2.73,10,10,0,0,0-5.69.38c-2.09.59-4.25,1.2-6.82-.35a6.1,6.1,0,0,1-2.71-7,.6.6,0,0,1,.77-.37.61.61,0,0,1,.37.78,4.94,4.94,0,0,0,2.19,5.55c2.13,1.28,3.86.79,5.87.23a11,11,0,0,1,6.35-.39A7,7,0,0,1,176,157.5a6.35,6.35,0,0,0,2.85,2.54,6.66,6.66,0,0,0,2.07.43.63.63,0,0,1,.63.58.6.6,0,0,1-.58.63Z" style="fill:#455a64"></path><path d="M174.07,159.55a2.06,2.06,0,1,1-2-2.08A2,2,0,0,1,174.07,159.55Z" style="fill:#f5f5f5"></path><path d="M149.81,176.64c-10.39,4.65-19.52,13.84-23.74,24-2.6,6.25-1.18,11.44,2.3,12.62,6.88,2.32,14.59-8.4,22.26-12.14s13.91-.12,17.8-2.63c4.58-2.95,3.91-10.48,1.45-15.85C167.14,176.62,160.21,172,149.81,176.64Z" style="fill:#455a64"></path><path d="M168.17,198.61c-3.81-13.25-16.25-17.38-28.87-15.38a46.21,46.21,0,0,0-13.23,17.39c-2.6,6.25-1.18,11.44,2.3,12.62,6.88,2.32,14.59-8.4,22.26-12.14C158.05,197.48,164.26,200.81,168.17,198.61Z" style="fill:#f28f8f"></path><path d="M160,199.3c-12.77-3.43-21,7.54-25.05,7.44s-6-3.63-.39-12.58,17.61-11.4,22.85-8.78c-5.23-2.58-11.62-3.17-18.07-2.15a46.21,46.21,0,0,0-13.23,17.39c-2.6,6.24-1.18,11.44,2.3,12.62,6.88,2.32,14.59-8.4,22.26-12.14A19.44,19.44,0,0,1,160,199.3Z" style="opacity:0.1"></path><path d="M164.86,186.62c-2.46,1.07-2.43,4.34-4.46,11.29-.14.49-.28,1-.42,1.4,3.42.08,6.31.54,8.45-.84a6.54,6.54,0,0,0,1.17-1C170.1,192.22,167.46,185.49,164.86,186.62Z" style="fill:#f5f5f5"></path><path d="M169.6,197.49a14.71,14.71,0,0,0,.05-1.88,5.05,5.05,0,0,1-2.86,1.9,12.37,12.37,0,0,1-3.95,0s.64-4.06,1.28-7.55c.42-2.34,1.82-3.36,2.94-2.55-.69-.77-1.44-1.12-2.2-.79-2.46,1.07-2.43,4.34-4.46,11.29-.14.49-.28,1-.42,1.4,3.42.08,6.31.54,8.45-.84A6.54,6.54,0,0,0,169.6,197.49Z" style="fill:#e0e0e0"></path><path d="M138.47,195.25c-2.47,1.07-2.43,4.34-4.46,11.29-.89,3-1.65,5.28-2.24,6.88,3.67-.7,7.52-4,11.43-7.17h0C143.75,201,141.09,194.11,138.47,195.25Z" style="fill:#f5f5f5"></path><path d="M143.2,206.24a15.11,15.11,0,0,0,0-2.61c-3.89,2.52-6.23,5.22-6.85,4.88s-.08-3.07.18-6.07c.32-3.63.77-7.39,3.19-7.13a1.51,1.51,0,0,0-1.28-.06c-2.47,1.07-2.43,4.34-4.46,11.29-.89,3-1.65,5.28-2.24,6.88,3.67-.7,7.52-4,11.43-7.17Z" style="fill:#e0e0e0"></path><path d="M53.76,240.39a3.28,3.28,0,0,1-1-.16,3,3,0,0,1-1.91-3.84C59,212.3,70.83,202.12,87.37,193.5a3,3,0,0,1,2.8,5.38C74.58,207,64.1,216.06,56.64,238.32A3.05,3.05,0,0,1,53.76,240.39Z" style="fill:#455a64"></path><path d="M51.62,234.22c-1.27,3.3-3.21,4.63-5.06,6.58s-3.85,3.13-5.78,6.17-2.84,8.2-2.26,10.61c.32,1.36,2.21,1.37,2.32.18.41-4.44,1.15-8.26,4.26-10.63a26.11,26.11,0,0,0-2.39,8.18c-.28,3.9.24,8.56,1.85,8.79s1.56-1.42,1.33-3.77-.44-8.55,2.69-13c0,0-1.12,6.54,0,10.72s3.28,7.16,4.48,6.65,1.14-1.31-.16-4.52c-1-2.49-1-5.65-.7-8.33a9.83,9.83,0,0,1,2.72-6.54,5.46,5.46,0,0,1,2.31-1.48,3.4,3.4,0,0,1,2.76.9,7.74,7.74,0,0,1,2.43,4.76c.28,2.1,3.75,2.29,2.46-3.61s-8.56-6.94-6.74-11.76Z" style="fill:#455a64"></path><path d="M202.67,212.13l2.77-5.36c-4.3-2.24.62-8.83-1.87-14.34s-5.15-3.29-4.13-1.44a6.84,6.84,0,0,1,.89,5.27c-.42,1.47-1.37,2.33-2.38,1.46s-1.66-3.73-5.37-6.88a13.11,13.11,0,0,0-8-3.42c-2.9,0-1.88,2-.49,2.57,6,2.4,6.74,3.74,8.24,5.7s1.31,3.08.53,2.85-2-1.93-5.62-3.61-7.71-1.67-8.34-.9-.56,1.76,1.18,2.17a33.14,33.14,0,0,1,7.41,2.49c2.55,1.47,3.71,3.37,3.29,3.92s-2.6-1-5.92-1.6-5-.61-6.4-.07c-1,.39-.65,2.44,2.39,2.59a20,20,0,0,1,8.72,2.83,29.17,29.17,0,0,0,5.06,2.94A76.71,76.71,0,0,0,202.67,212.13Z" style="fill:#455a64"></path><path d="M103.38,131.17c3.51,1.84,9.14,11.42,2.24,21.61a20.32,20.32,0,0,1-21.15,9.05c-2.8-1.36-17.46-7.72-18.18-28S78,105.83,81.16,104s9.34-2.33,8.57,4.61-1.5,13.1,3.54,17.56C97.23,129.7,103.38,131.17,103.38,131.17Z" style="fill:#BA68C8"></path><path d="M103.38,131.17c3.51,1.84,9.14,11.42,2.24,21.61a20.32,20.32,0,0,1-21.15,9.05c-2.8-1.36-17.46-7.72-18.18-28S78,105.83,81.16,104s9.34-2.33,8.57,4.61-1.5,13.1,3.54,17.56C97.23,129.7,103.38,131.17,103.38,131.17Z" style="fill:#fff;opacity:0.75"></path><path d="M77.13,157.52a14.61,14.61,0,0,1-1.47-.07.61.61,0,0,1-.54-.67.61.61,0,0,1,.67-.54c3,.33,12.34-.35,18.77-7.36,6.57-7.17,6.84-14.16,5.9-18.76a.6.6,0,0,1,.47-.71.61.61,0,0,1,.72.47c1,4.87.72,12.27-6.2,19.82C89.52,156.17,81.24,157.52,77.13,157.52Z" style="fill:#BA68C8"></path><path d="M73.41,144.14a32.94,32.94,0,0,1-6.62-.64.6.6,0,1,1,.26-1.18c.46.1,11.34,2.46,19.13-2.77,7.06-4.73,7.68-10.44,7.94-12.88a.61.61,0,0,1,.67-.54.59.59,0,0,1,.53.67c-.25,2.38-.93,8.71-8.46,13.76C82.57,143.44,77.42,144.14,73.41,144.14Z" style="fill:#BA68C8"></path><path d="M76.31,128a18.69,18.69,0,0,1-10.38-2.79.6.6,0,1,1,.66-1c2,1.32,6.48,3.37,13.71,2.27,5.71-.87,8.19-2.71,10-4.56a.6.6,0,1,1,.86.85c-2,2-4.62,4-10.68,4.91A27.64,27.64,0,0,1,76.31,128Z" style="fill:#BA68C8"></path><path d="M82.68,116.3a14.43,14.43,0,0,1-3.66-.49,10.3,10.3,0,0,1-6.93-5.31.61.61,0,0,1,.27-.82.6.6,0,0,1,.81.27,9,9,0,0,0,6.15,4.69,12.08,12.08,0,0,0,10-1.6.59.59,0,0,1,.84.17.6.6,0,0,1-.17.84A13.14,13.14,0,0,1,82.68,116.3Z" style="fill:#BA68C8"></path><path d="M92.38,154.6c-4.42-.41-10-1.66-14.75-9s-6.28-22.65-1.91-31.87c2.88-6.07,8.63-11.63,12.78-9.77-1.85-1.73-5.27-1.11-7.34.08-3.12,1.8-15.59,9.55-14.87,29.82s15.38,26.62,18.18,28a20.32,20.32,0,0,0,21.15-9.05c4.62-6.82,3.62-13.37,1.41-17.51h0C110.49,146.14,99,155.2,92.38,154.6Z" style="opacity:0.1"></path><path d="M101.46,152.5s-5.22,5.75-5.26,11.27a5.26,5.26,0,1,0,10.51,0C106.67,158.25,101.46,152.5,101.46,152.5Z" style="fill:#fafafa"></path></g></g><g id="freepik--speech-bubble--inject-8"><g id="freepik--speech-bubble--inject-8"><g id="freepik--speech-bubble--inject-8"><path d="M280,60.69,215.54,97.88a2.67,2.67,0,0,0-1.22,2.1v40.54a2.66,2.66,0,0,0,1.22,2.09l4.35,2.43a2.7,2.7,0,0,0,2.43,0l64.49-37.18a2.69,2.69,0,0,0,1.21-2.1V65.21a2.66,2.66,0,0,0-1.22-2.09l-4.35-2.44A2.73,2.73,0,0,0,280,60.69Z" style="fill:#BA68C8"></path><path d="M221.11,144.33V103.79a2.69,2.69,0,0,1,1.21-2.1l64.49-37.18c.67-.39,1.21-.07,1.21.7v40.54a2.69,2.69,0,0,1-1.21,2.1L222.32,145C221.65,145.42,221.11,145.1,221.11,144.33Z" style="fill:#BA68C8"></path><path d="M222.32,145a2.67,2.67,0,0,1-2.43,0l-4.35-2.45a2.63,2.63,0,0,1-1.22-2.08V100a2.44,2.44,0,0,1,.39-1.24l6.76,3.86a2.35,2.35,0,0,0-.36,1.19v40.54C221.11,145,221.61,145.45,222.32,145Z" style="opacity:0.2"></path><path d="M288,65c-.09-.61-.59-.83-1.2-.48l-64.47,37.18a2.52,2.52,0,0,0-.86.91l-6.77-3.86a2.39,2.39,0,0,1,.84-.86L280,60.69a2.73,2.73,0,0,1,2.43,0l4.35,2.44A2.67,2.67,0,0,1,288,65Z" style="fill:#fff;opacity:0.4"></path><path d="M214.32,114.38l-9.76,9.93a1.08,1.08,0,0,0,.18,1.66c.2.14,6.76,3.89,6.76,3.89l9.61-11.57Z" style="fill:#BA68C8"></path><path d="M214.32,114.38l-9.76,9.93a1.08,1.08,0,0,0,.18,1.66c.2.14,6.76,3.89,6.76,3.89l9.61-11.57Z" style="opacity:0.1"></path><path d="M221.11,118.29l-9.76,9.93a1.08,1.08,0,0,0,.92,1.82l8.84-1.28C222.06,128.76,222.06,118.29,221.11,118.29Z" style="fill:#BA68C8"></path></g><path d="M229,115a17.58,17.58,0,0,1,.47-3.42,15.17,15.17,0,0,1,1.18-3.23,13.63,13.63,0,0,1,1.86-2.8,9.37,9.37,0,0,1,2.52-2.09,5,5,0,0,1,2.51-.81,2.74,2.74,0,0,1,1.86.65,4.1,4.1,0,0,1,1.18,1.87,9.73,9.73,0,0,1,.47,2.87c0,.83,0,1.72,0,2.65s0,1.81,0,2.64a16.08,16.08,0,0,1-.47,3.41,15.54,15.54,0,0,1-1.18,3.25,12.87,12.87,0,0,1-1.86,2.8,9.94,9.94,0,0,1-2.51,2.08,5.26,5.26,0,0,1-2.52.83,2.74,2.74,0,0,1-1.86-.65,4.27,4.27,0,0,1-1.18-1.9,10.36,10.36,0,0,1-.47-2.86c0-.8,0-1.66,0-2.6S229,115.88,229,115Zm8.48.24c0-.36,0-.76,0-1.21s0-.89,0-1.35,0-.89,0-1.31,0-.79,0-1.12a4.88,4.88,0,0,0-.2-1.25,1.85,1.85,0,0,0-.47-.82,1.08,1.08,0,0,0-.74-.3,2,2,0,0,0-1,.33,4.43,4.43,0,0,0-1,.87,5.58,5.58,0,0,0-.74,1.16,6.8,6.8,0,0,0-.46,1.36,8.94,8.94,0,0,0-.21,1.48c0,.35,0,.74,0,1.17s0,.88,0,1.33,0,.9,0,1.34,0,.82,0,1.16a3.37,3.37,0,0,0,.67,2.08c.39.43,1,.41,1.79-.05a4.14,4.14,0,0,0,1.77-2A8.11,8.11,0,0,0,237.49,115.26Z" style="fill:#455a64"></path><path d="M253.18,105.26c0,.29,0,.67,0,1.13s0,.85,0,1.16a13,13,0,0,1-.43,2.92,14.3,14.3,0,0,1-1.06,2.8,11.86,11.86,0,0,1-1.63,2.41,8.31,8.31,0,0,1-2.14,1.77,4.55,4.55,0,0,1-2.13.7,2.51,2.51,0,0,1-1.64-.53,3.66,3.66,0,0,1-1.06-1.57,7.35,7.35,0,0,1-.42-2.44c0-.29,0-.66,0-1.13s0-.85,0-1.16a12.42,12.42,0,0,1,.4-2.91,13.75,13.75,0,0,1,1.08-2.8,12,12,0,0,1,1.64-2.44,8.31,8.31,0,0,1,2.13-1.78,4.42,4.42,0,0,1,2.14-.68,2.59,2.59,0,0,1,1.64.54,3.47,3.47,0,0,1,1.06,1.57A7.9,7.9,0,0,1,253.18,105.26Zm-7,6.2a1.9,1.9,0,0,0,.54,1.46c.31.25.73.22,1.24-.08a3.25,3.25,0,0,0,1.25-1.36,5.1,5.1,0,0,0,.53-2.07c0-.32,0-.66,0-1s0-.7,0-1a2,2,0,0,0-.53-1.46,1.08,1.08,0,0,0-1.25.08,3.23,3.23,0,0,0-1.24,1.36,5,5,0,0,0-.54,2.08c0,.31,0,.65,0,1S246.12,111.18,246.14,111.46Z" style="fill:#455a64"></path><path d="M261.06,109.87a3.35,3.35,0,0,1-1,.39,1.73,1.73,0,0,1-.73,0,1.35,1.35,0,0,1-.52-.27,2.38,2.38,0,0,1-.35-.38v6.33a1.46,1.46,0,0,1-.16.66,1.05,1.05,0,0,1-.36.45l-2.44,1.4a.28.28,0,0,1-.36,0,.62.62,0,0,1-.16-.48V98.41a1.39,1.39,0,0,1,.16-.65.94.94,0,0,1,.36-.45L257.85,96a.27.27,0,0,1,.37,0,.66.66,0,0,1,.15.48v.68l.38-.84a4.76,4.76,0,0,1,.5-.87,6.84,6.84,0,0,1,.73-.84,5.46,5.46,0,0,1,1.08-.78,3.66,3.66,0,0,1,1.64-.55,1.81,1.81,0,0,1,1.35.47,3.57,3.57,0,0,1,.94,1.58,9.63,9.63,0,0,1,.39,2.81c0,.29,0,.69,0,1.19s0,.91,0,1.22a14.93,14.93,0,0,1-.39,3.26,12.87,12.87,0,0,1-.94,2.67,8.71,8.71,0,0,1-1.35,2A6.87,6.87,0,0,1,261.06,109.87Zm.87-7.7a11.63,11.63,0,0,0,0-1.67,2.94,2.94,0,0,0-.45-1.55q-.39-.56-1.29,0a2.48,2.48,0,0,0-.74.63,4.26,4.26,0,0,0-.51.85,6.12,6.12,0,0,0-.32.94,6.45,6.45,0,0,0-.15,1c0,.31,0,.67,0,1.06a10,10,0,0,0,0,1,3.72,3.72,0,0,0,.15.78,1.73,1.73,0,0,0,.32.57.78.78,0,0,0,.51.25,1.31,1.31,0,0,0,.74-.21,3,3,0,0,0,1.29-1.52A6.74,6.74,0,0,0,261.93,102.17Z" style="fill:#455a64"></path><path d="M272.92,98.08q0-.33-.15-.42a.65.65,0,0,0-.49,0,7.49,7.49,0,0,0-.92.29c-.38.14-.85.29-1.42.46a2.13,2.13,0,0,1-2.26-.36,3.92,3.92,0,0,1-.79-2.81,6.93,6.93,0,0,1,.33-2.07,9.28,9.28,0,0,1,.92-2,9.59,9.59,0,0,1,1.42-1.85,8.6,8.6,0,0,1,1.85-1.44,5.21,5.21,0,0,1,1.85-.7,3,3,0,0,1,1.47.11,1.86,1.86,0,0,1,1,.77,2.47,2.47,0,0,1,.39,1.27,1.2,1.2,0,0,1-.14.65,1.07,1.07,0,0,1-.38.46l-2.3,1.32c-.14.09-.25.1-.33.05l-.3-.15a.91.91,0,0,0-.46-.07,1.89,1.89,0,0,0-.78.31,2.5,2.5,0,0,0-.74.62,1.23,1.23,0,0,0-.3.81.8.8,0,0,0,.09.45q.1.12.39.06a6,6,0,0,0,.81-.25l1.37-.46c1.17-.38,2-.26,2.56.35a4,4,0,0,1,.8,2.7,7.31,7.31,0,0,1-.32,2.08,9.49,9.49,0,0,1-1,2.11,10.45,10.45,0,0,1-1.55,2,10.14,10.14,0,0,1-2.06,1.58,5.67,5.67,0,0,1-2,.77,2.77,2.77,0,0,1-1.48-.17,2.08,2.08,0,0,1-.92-.84,2.75,2.75,0,0,1-.35-1.25,1.2,1.2,0,0,1,.14-.65,1.13,1.13,0,0,1,.38-.46l2.39-1.38c.15-.08.25-.09.31,0a1.84,1.84,0,0,0,.25.21.83.83,0,0,0,.45.1,2.13,2.13,0,0,0,.87-.34,4,4,0,0,0,1-.82A1.46,1.46,0,0,0,272.92,98.08Z" style="fill:#455a64"></path><path d="M281.63,90.5a1.45,1.45,0,0,1-.16.65.94.94,0,0,1-.36.45L278.67,93a.26.26,0,0,1-.36,0,.62.62,0,0,1-.16-.48V79.69a1.46,1.46,0,0,1,.16-.66.94.94,0,0,1,.36-.45l2.44-1.4a.26.26,0,0,1,.36,0,.62.62,0,0,1,.16.48Zm0,6.39a1.39,1.39,0,0,1-.16.65.94.94,0,0,1-.36.45l-2.44,1.41a.27.27,0,0,1-.36,0,.59.59,0,0,1-.16-.47v-3a1.45,1.45,0,0,1,.16-.65.94.94,0,0,1,.36-.45l2.44-1.41a.27.27,0,0,1,.36,0,.62.62,0,0,1,.16.48Z" style="fill:#455a64"></path></g></g></svg>